<?xml version="1.0" encoding="UTF-8" standalone="no" ?>
<!DOCTYPE svg PUBLIC "-//W3C//DTD SVG 1.1//EN" "http://www.w3.org/Graphics/SVG/1.1/DTD/svg11.dtd">
<svg xmlns="http://www.w3.org/2000/svg" xmlns:xlink="http://www.w3.org/1999/xlink" version="1.1" width="1080" height="1080" viewBox="0 0 1080 1080" xml:space="preserve">
<desc>Created with Fabric.js 5.2.4</desc>
<defs>
</defs>
<g transform="matrix(1 0 0 1 540 540)" id="b979488d-0199-4520-b618-3658d50daab0"  >
<rect style="stroke: none; stroke-width: 1; stroke-dasharray: none; stroke-linecap: butt; stroke-dashoffset: 0; stroke-linejoin: miter; stroke-miterlimit: 4; fill: rgb(255,255,255); fill-rule: nonzero; opacity: 1; visibility: hidden;" vector-effect="non-scaling-stroke"  x="-540" y="-540" rx="0" ry="0" width="1080" height="1080" />
</g>
<g transform="matrix(1 0 0 1 540 540)" id="0ffa2686-e0ff-41d7-8b24-0e55e5aaecb7"  >
</g>
<g transform="matrix(1 0 0 1 565.03 540)"  >
<g style="" vector-effect="non-scaling-stroke"   >
		<g transform="matrix(1 0 0 1 0 0)"  >
<path style="stroke: none; stroke-width: 1; stroke-dasharray: none; stroke-linecap: butt; stroke-dashoffset: 0; stroke-linejoin: miter; stroke-miterlimit: 4; fill: rgb(255,251,172); fill-rule: nonzero; opacity: 1;" vector-effect="non-scaling-stroke"  transform=" translate(-306.55, -285.57)" d="M 521.9 447.2 C 521.9 447.2 521.9 447.2 521.9 447.2 C 522.3 447.4 522.6 447.2 522.9 446.9 C 523.8 446.09999999999997 524.1999999999999 444.79999999999995 525 443.9 C 527.8 440 530.9 436.59999999999997 534.1 433 C 537.6 429.2 541.4 425.5 544.1 421 C 544.9 419.6 546.2 417.6 547.1 416 C 548.4 413.1 549.9 410.3 551.8000000000001 407.7 C 556.9000000000001 401 564.0000000000001 396.4 569.7 390.3 C 573.6 386.1 576.5 381 578.6 375.5 C 579.9 371.7 580.6 367.6 582.5 364 C 584 361.4 585.6 359.2 587.9 357.1 C 595.9 350.5 601.9 341.3 604.6999999999999 331.20000000000005 C 606.1999999999999 324.40000000000003 606.8 317.80000000000007 608.9 311.00000000000006 C 609.8 307.70000000000005 611.3 304.6000000000001 612.9 301.6000000000001 C 614 298.7000000000001 611.9 298.50000000000006 610.6999999999999 300.7000000000001 C 609.9 300.7000000000001 609.4 301.4000000000001 608.9 302.0000000000001 C 608.1 303.3000000000001 607.5 304.60000000000014 606.8 306.2000000000001 C 604.1999999999999 309.2000000000001 602.0999999999999 312.5000000000001 599.4 315.5000000000001 C 595.9 319.5000000000001 591.8 323.60000000000014 588.3 327.7000000000001 C 588.3 327.7000000000001 588.4 327.6000000000001 588.4 327.6000000000001 L 588.4 327.6000000000001 C 584.9 331.50000000000006 581.5 335.50000000000006 579 340.00000000000006 C 575.2 347.1000000000001 572.3 354.70000000000005 568.8 361.90000000000003 C 563.9 372.6 558.1999999999999 383.00000000000006 553.8 394.00000000000006 C 549.3 405.1000000000001 544 416.30000000000007 535.5999999999999 425.1000000000001 C 534.0999999999999 426.9000000000001 532.5999999999999 428.7000000000001 531.1999999999999 430.6000000000001 C 534.4999999999999 424.50000000000006 537.6999999999999 418.4000000000001 540.9 412.30000000000007 C 553.4 388.20000000000005 564.9 363.50000000000006 569.9 336.70000000000005 C 569.9 336.6 569.9 336.50000000000006 570 336.40000000000003 C 571 333.90000000000003 571.9 331.40000000000003 572.4 328.8 C 572.5 328.7 572.6 328.6 572.6999999999999 328.40000000000003 C 574.4 326.40000000000003 576.1999999999999 324.50000000000006 577.5999999999999 322.3 C 579.8 318 579.3 313 578.9999999999999 308.3 C 578.5999999999999 304.6 578.3999999999999 300.8 576.7999999999998 297.40000000000003 C 576.5999999999998 297.1 576.3999999999999 296.70000000000005 576.1999999999998 296.40000000000003 C 578.0999999999998 292.90000000000003 579.1999999999998 289.00000000000006 581.4999999999998 285.6 C 587.9999999999998 276.1 598.1999999999998 269.1 604.3999999999997 259.3 C 609.9999999999998 248.9 615.1999999999997 238.10000000000002 611.6999999999997 226.10000000000002 C 611.2999999999997 224.3 611.3999999999997 222.40000000000003 611.1999999999997 220.60000000000002 C 610.9999999999997 218.8 610.2999999999997 217.20000000000002 609.6999999999997 215.50000000000003 C 609.7999999999997 214.50000000000003 609.4999999999997 213.30000000000004 608.2999999999997 214.00000000000003 C 607.3999999999997 214.50000000000003 606.8999999999997 215.60000000000002 606.6999999999997 216.60000000000002 C 605.5999999999997 218.70000000000002 604.8999999999997 221.00000000000003 604.2999999999997 223.3 C 603.2999999999997 229.8 602.1999999999997 236.4 599.4999999999998 242.5 C 595.7999999999997 249.4 592.7999999999997 256.2 588.7999999999997 263 C 584.2999999999997 270.6 579.9999999999998 278.2 576.7999999999997 286.5 C 576.1999999999997 288.2 575.5999999999997 289.9 575.0999999999997 291.7 C 575.1999999999997 289.7 575.3999999999996 287.7 575.4999999999997 285.7 C 576.0999999999997 274.4 576.6999999999997 263 576.5999999999997 251.7 C 576.8999999999996 250.6 577.0999999999997 249.29999999999998 577.1999999999997 249 C 579.1999999999997 253.2 579.5999999999997 240.2 580.0999999999997 238.6 C 581.3999999999996 232.29999999999998 583.8999999999996 226.29999999999998 585.1999999999997 219.9 C 587.3999999999997 211.4 589.8999999999997 202.5 588.6999999999997 193.70000000000002 C 587.7999999999997 186.70000000000002 585.0999999999997 180.00000000000003 583.8999999999997 173.10000000000002 C 582.7999999999997 164.20000000000002 582.0999999999998 155.3 579.1999999999997 146.8 C 578.1999999999997 142.70000000000002 576.6999999999997 138.9 574.2999999999997 135.5 C 571.2999999999997 130.1 567.6999999999997 125.1 563.9999999999998 120.2 C 560.4999999999998 115.3 555.9999999999998 111.4 551.0999999999998 107.9 C 548.6999999999998 106.2 546.0999999999998 105 543.9999999999998 102.9 C 541.1999999999998 100.5 537.6999999999998 99.2 534.9999999999998 96.7 C 534.5999999999998 96.4 534.2999999999997 96.10000000000001 533.8999999999997 95.8 C 533.5999999999998 95.6 533.0999999999998 95 532.6999999999997 95.2 C 531.9999999999997 95.5 532.1999999999997 96.60000000000001 532.3999999999997 97.10000000000001 C 534.7999999999997 102.10000000000001 537.4999999999998 106.7 540.9999999999998 111.2 C 543.4999999999998 114.2 546.5999999999998 116.60000000000001 548.3999999999997 120.2 C 553.2999999999997 130.2 558.6999999999997 140.1 562.6999999999997 150.5 C 564.2999999999997 154.2 565.9999999999997 157.8 567.4999999999997 161.5 C 569.9999999999997 168.4 571.1999999999997 175.7 572.4999999999997 182.9 C 573.9999999999997 191 574.3999999999996 198.8 574.8999999999996 207.20000000000002 C 575.4999999999997 215.10000000000002 576.4999999999997 223.00000000000003 577.0999999999997 231.00000000000003 C 576.6999999999997 232.60000000000002 576.2999999999997 234.20000000000002 575.9999999999997 235.70000000000002 C 575.8999999999996 234.70000000000002 575.7999999999996 233.70000000000002 575.6999999999997 232.70000000000002 C 571.9999999999997 201.8 564.6999999999997 170 546.5999999999997 144.10000000000002 C 537.8999999999996 131.90000000000003 527.1999999999997 121.10000000000002 516.0999999999997 111.10000000000002 C 505.29999999999967 101.30000000000003 493.79999999999967 92.30000000000003 481.1999999999997 85.00000000000003 C 462.0999999999997 74.00000000000003 442.1999999999997 64.20000000000003 421.3999999999997 57.00000000000003 C 417.1999999999997 55.70000000000003 413.79999999999967 52.60000000000003 409.79999999999967 50.60000000000003 C 406.69999999999965 48.80000000000003 403.49999999999966 47.30000000000003 400.19999999999965 46.00000000000003 C 391.19999999999965 42.40000000000003 381.49999999999966 41.800000000000026 371.89999999999964 40.90000000000003 C 357.7999999999996 36.90000000000003 343.2999999999996 34.00000000000003 328.5999999999996 34.60000000000003 C 323.89999999999964 34.80000000000003 319.19999999999965 35.40000000000003 314.5999999999996 36.40000000000003 C 308.39999999999964 36.10000000000003 302.2999999999996 36.00000000000003 296.0999999999996 36.300000000000026 C 285.0999999999996 36.800000000000026 274.19999999999965 39.200000000000024 263.5999999999996 42.300000000000026 C 237.7999999999996 50.200000000000024 211.99999999999963 59.10000000000002 189.09999999999962 73.70000000000002 C 176.39999999999964 78.30000000000001 164.19999999999962 84.30000000000001 152.59999999999962 91.30000000000001 C 131.59999999999962 104.20000000000002 112.49999999999963 120.20000000000002 94.49999999999963 137 C 87.79999999999963 143.7 81.49999999999963 150.8 75.69999999999963 158.3 C 80.19999999999963 149.9 87.59999999999964 143.3 94.39999999999964 136.70000000000002 C 101.89999999999964 130.3 105.19999999999963 120.70000000000002 107.79999999999964 111.50000000000001 C 109.69999999999965 111.00000000000001 110.29999999999964 108.90000000000002 111.19999999999965 107.40000000000002 C 112.49999999999964 105.10000000000002 114.09999999999965 102.40000000000002 115.49999999999964 100.10000000000002 C 121.49999999999964 94.80000000000003 127.89999999999965 90.00000000000003 134.29999999999964 85.20000000000002 C 137.19999999999965 83.10000000000002 140.49999999999963 81.70000000000002 143.19999999999965 79.50000000000001 C 147.39999999999964 76.60000000000001 150.09999999999965 72.30000000000001 153.39999999999964 68.50000000000001 C 156.99999999999963 64.70000000000002 161.79999999999964 62.500000000000014 166.29999999999964 59.90000000000001 C 168.79999999999964 58.40000000000001 171.19999999999965 56.80000000000001 173.59999999999965 55.20000000000001 C 182.69999999999965 49.40000000000001 187.69999999999965 39.60000000000001 193.09999999999965 30.60000000000001 C 194.49999999999966 28.300000000000008 196.19999999999965 26.20000000000001 197.09999999999965 23.70000000000001 C 197.89999999999966 21.10000000000001 198.59999999999965 18.50000000000001 199.79999999999964 16.00000000000001 C 199.89999999999964 15.70000000000001 199.99999999999963 15.400000000000011 200.09999999999965 15.10000000000001 C 200.29999999999964 14.50000000000001 200.49999999999966 13.900000000000011 200.69999999999965 13.400000000000011 C 200.89999999999964 12.900000000000011 201.09999999999965 12.400000000000011 201.29999999999964 12.00000000000001 C 201.49999999999963 11.400000000000011 201.69999999999965 10.900000000000011 201.99999999999963 10.300000000000011 C 202.19999999999962 9.900000000000011 202.49999999999963 9.50000000000001 202.69999999999962 9.00000000000001 C 202.8999999999996 8.60000000000001 203.09999999999962 8.20000000000001 203.2999999999996 7.8000000000000105 L 203.2999999999996 7.8000000000000105 C 203.3999999999996 7.500000000000011 203.59999999999962 7.10000000000001 203.7999999999996 6.8000000000000105 C 203.9999999999996 6.500000000000011 204.19999999999962 6.200000000000011 204.3999999999996 5.90000000000001 C 204.7999999999996 5.3000000000000105 204.9999999999996 4.60000000000001 205.2999999999996 4.000000000000011 C 205.4999999999996 3.700000000000011 205.59999999999962 3.4000000000000106 205.7999999999996 3.1000000000000107 C 206.19999999999962 0.9000000000000106 205.2999999999996 -1.3999999999999893 202.7999999999996 0.9000000000000106 C 198.19999999999962 4.000000000000011 193.4999999999996 6.800000000000011 188.9999999999996 9.900000000000011 C 183.1999999999996 13.800000000000011 177.1999999999996 17.50000000000001 171.2999999999996 21.30000000000001 C 162.19999999999962 27.20000000000001 153.69999999999962 34.000000000000014 145.4999999999996 41.20000000000001 C 134.1999999999996 50.60000000000001 127.2999999999996 63.80000000000001 119.7999999999996 76.20000000000002 C 115.9999999999996 82.40000000000002 114.1999999999996 89.40000000000002 111.4999999999996 96.10000000000002 C 108.7999999999996 101.90000000000002 106.7999999999996 108.30000000000003 105.1999999999996 114.60000000000002 C 102.89999999999961 121.90000000000002 99.89999999999961 129.10000000000002 94.09999999999961 134.40000000000003 C 87.59999999999961 141.30000000000004 80.39999999999961 147.90000000000003 76.09999999999961 156.60000000000002 C 75.29999999999961 158.10000000000002 74.39999999999961 159.70000000000002 73.79999999999961 161.3 C 63.69999999999961 174.9 55.19999999999961 189.8 49.09999999999961 205.60000000000002 C 49.29999999999961 203.60000000000002 49.49999999999961 201.50000000000003 49.59999999999961 199.40000000000003 C 50.09999999999961 194.00000000000003 50.19999999999961 188.90000000000003 51.89999999999961 183.60000000000002 C 54.59999999999961 172.90000000000003 61.89999999999961 163.8 64.4999999999996 153.00000000000003 C 66.39999999999961 155.30000000000004 67.6999999999996 145.90000000000003 68.1999999999996 144.40000000000003 C 71.9999999999996 136.80000000000004 77.39999999999961 130.00000000000003 83.09999999999961 123.80000000000004 C 86.99999999999962 119.70000000000005 91.39999999999961 116.10000000000004 94.59999999999961 111.50000000000004 C 97.09999999999961 107.50000000000004 99.1999999999996 103.20000000000005 100.49999999999962 98.70000000000005 C 101.59999999999961 93.40000000000005 101.39999999999962 87.60000000000005 103.19999999999962 82.20000000000005 C 104.99999999999962 77.00000000000004 106.99999999999962 71.80000000000004 110.19999999999962 67.30000000000004 C 111.99999999999962 64.80000000000004 113.99999999999962 62.40000000000004 115.49999999999962 59.80000000000004 C 117.49999999999962 56.70000000000004 118.29999999999961 53.60000000000004 116.09999999999961 50.30000000000004 C 115.99999999999962 48.20000000000004 114.89999999999961 47.60000000000004 113.1999999999996 48.50000000000004 C 108.1999999999996 50.80000000000004 103.4999999999996 53.80000000000004 99.39999999999961 57.50000000000004 C 89.79999999999961 66.60000000000004 81.59999999999961 77.40000000000003 75.39999999999961 89.10000000000005 C 70.59999999999961 99.50000000000006 66.79999999999961 110.50000000000006 65.09999999999961 121.90000000000005 C 64.29999999999961 129.40000000000003 63.89999999999961 136.90000000000003 63.49999999999961 144.40000000000003 C 63.299999999999606 148.90000000000003 62.69999999999961 153.40000000000003 60.89999999999961 157.50000000000003 C 55.299999999999606 169.80000000000004 48.699999999999605 182.20000000000002 48.49999999999961 196.10000000000002 C 48.19999999999961 200.10000000000002 47.99999999999961 204.10000000000002 47.799999999999606 208.10000000000002 C 47.799999999999606 208.3 47.799999999999606 208.50000000000003 47.799999999999606 208.70000000000002 C 47.39999999999961 209.8 46.99999999999961 211.00000000000003 46.5999999999996 212.10000000000002 C 40.5999999999996 229.70000000000002 37.4999999999996 248.10000000000002 36.699999999999605 266.70000000000005 C 36.5999999999996 267.80000000000007 36.5999999999996 268.90000000000003 36.5999999999996 270.00000000000006 C 35.799999999999606 263.6000000000001 34.8999999999996 257.30000000000007 33.799999999999606 250.90000000000006 C 35.89999999999961 240.90000000000006 34.49999999999961 230.90000000000006 32.699999999999605 221.00000000000006 C 32.39999999999961 216.30000000000007 32.4999999999996 211.50000000000006 32.199999999999605 206.70000000000005 C 32.5999999999996 195.10000000000005 32.699999999999605 183.50000000000006 32.9999999999996 172.00000000000006 C 33.199999999999605 165.40000000000006 34.9999999999996 159.00000000000006 36.199999999999605 152.50000000000006 C 36.5999999999996 147.00000000000006 38.39999999999961 141.90000000000006 40.299999999999606 136.80000000000007 C 42.49999999999961 129.60000000000008 43.699999999999605 122.10000000000007 44.299999999999606 114.60000000000007 C 44.49999999999961 112.30000000000007 44.699999999999605 110.00000000000007 44.699999999999605 107.70000000000006 C 45.199999999999605 106.70000000000006 45.4999999999996 103.10000000000007 43.5999999999996 103.40000000000006 C 42.799999999999606 103.00000000000006 41.9999999999996 104.50000000000006 41.5999999999996 105.10000000000007 C 41.299999999999606 105.60000000000007 40.9999999999996 106.20000000000006 40.799999999999606 106.80000000000007 C 35.89999999999961 112.50000000000007 31.099999999999607 118.30000000000007 27.499999999999606 124.90000000000006 C 24.599999999999607 130.90000000000006 21.399999999999608 136.80000000000007 19.399999999999608 143.10000000000005 C 15.699999999999608 156.30000000000004 12.699999999999608 169.90000000000006 11.999999999999607 183.60000000000005 C 11.799999999999608 192.60000000000005 12.799999999999608 201.60000000000005 14.399999999999608 210.50000000000006 C 15.199999999999608 214.90000000000006 16.399999999999608 219.30000000000007 18.19999999999961 223.40000000000006 C 19.899999999999608 227.40000000000006 22.799999999999606 230.90000000000006 24.69999999999961 234.80000000000007 C 27.29999999999961 240.60000000000008 29.299999999999606 246.70000000000007 31.299999999999606 252.70000000000007 C 31.499999999999606 253.20000000000007 31.699999999999605 253.80000000000007 32.299999999999606 253.90000000000006 C 33.99999999999961 263.50000000000006 35.799999999999606 273.00000000000006 36.39999999999961 282.70000000000005 C 36.299999999999606 295.30000000000007 37.09999999999961 307.90000000000003 38.89999999999961 320.40000000000003 C 38.299999999999606 329.70000000000005 38.199999999999605 339.1 38.49999999999961 348.40000000000003 C 37.99999999999961 347.40000000000003 37.49999999999961 346.40000000000003 36.89999999999961 345.50000000000006 C 34.49999999999961 340.30000000000007 32.39999999999961 334.90000000000003 29.399999999999608 330.00000000000006 C 29.19999999999961 329.6000000000001 29.099999999999607 329.30000000000007 28.899999999999608 328.90000000000003 C 28.49999999999961 327.20000000000005 28.19999999999961 325.50000000000006 27.69999999999961 323.90000000000003 C 26.29999999999961 319.8 23.99999999999961 316.20000000000005 22.19999999999961 312.3 C 18.79999999999961 305.6 14.99999999999961 299.1 11.399999999999608 292.5 C 9.699999999999608 287.6 8.299999999999608 282.7 5.399999999999608 278.3 C 4.699999999999608 277.3 3.2999999999996077 275.2 1.8999999999996078 274.6 C 1.6999999999996078 274.3 1.4999999999996079 274 1.3999999999996078 273.70000000000005 C 1.2999999999996077 273.6 1.2999999999996077 273.50000000000006 1.1999999999996078 273.40000000000003 L 1.1999999999996078 273.40000000000003 C -0.40000000000039226 274.50000000000006 -0.3000000000003922 276.90000000000003 0.2999999999996078 278.50000000000006 C -0.5000000000003922 288.30000000000007 1.599999999999608 298.1000000000001 2.399999999999608 307.80000000000007 C 4.299999999999608 325.1000000000001 5.099999999999608 333.20000000000005 15.299999999999608 347.9000000000001 C 21.49999999999961 357.2000000000001 30.899999999999608 362.9000000000001 39.699999999999605 369.4000000000001 C 39.799999999999606 370.0000000000001 39.799999999999606 370.6000000000001 39.89999999999961 371.2000000000001 C 43.59999999999961 404.8000000000001 57.199999999999605 435.80000000000007 75.1999999999996 464.10000000000014 C 99.79999999999961 505.40000000000015 146.9999999999996 542.4000000000001 191.3999999999996 560.4000000000001 C 207.5999999999996 566.6000000000001 224.8999999999996 568.6000000000001 242.09999999999962 569.7 C 257.39999999999964 570.7 272.69999999999965 571 288.0999999999996 571.2 C 302.19999999999965 571.1 316.39999999999964 570 330.0999999999996 566.5 C 348.5999999999996 561.5 366.5999999999996 554.5 384.5999999999996 547.9 C 400.0999999999996 545.8 415.0999999999996 540.6999999999999 429.0999999999996 533.6999999999999 C 436.7999999999996 529.8 444.19999999999965 525.4 451.39999999999964 520.6999999999999 C 452.99999999999966 520.1999999999999 454.5999999999996 519.6999999999999 456.19999999999965 519.0999999999999 C 458.99999999999966 521.0999999999999 462.49999999999966 518.8 465.5999999999996 518.9999999999999 C 471.5999999999996 518.6999999999999 477.39999999999964 520.7999999999998 483.39999999999964 520.7999999999998 C 485.89999999999964 520.8999999999999 489.0999999999996 521.0999999999998 491.69999999999965 520.6999999999998 C 497.29999999999967 519.5999999999998 502.49999999999966 516.8999999999999 507.79999999999967 514.8999999999999 C 511.79999999999967 512.7999999999998 515.7999999999997 510.6999999999999 519.8999999999996 508.89999999999986 C 521.6999999999996 508.39999999999986 523.5999999999997 507.9999999999999 525.3999999999996 507.29999999999984 C 526.5999999999997 506.79999999999984 525.6999999999996 505.49999999999983 524.8999999999996 505.1999999999998 C 523.4999999999997 504.29999999999984 521.7999999999996 504.29999999999984 520.2999999999996 504.99999999999983 C 514.9999999999997 506.1999999999998 509.5999999999996 506.8999999999998 504.1999999999996 507.3999999999998 C 498.09999999999957 507.3999999999998 491.9999999999996 506.49999999999983 485.9999999999996 507.49999999999983 C 477.9999999999996 508.79999999999984 469.9999999999996 510.3999999999998 462.9999999999996 514.5999999999998 C 461.2999999999996 515.7999999999998 459.0999999999996 515.8999999999997 457.1999999999996 516.7999999999998 C 459.1999999999996 515.3999999999999 461.1999999999996 513.9999999999999 463.1999999999996 512.4999999999999 C 470.6999999999996 506.7999999999999 478.2999999999996 501.0999999999999 485.3999999999996 494.7999999999999 C 490.9999999999996 491.9999999999999 495.8999999999996 489.4999999999999 501.3999999999996 486.3999999999999 C 505.1999999999996 484.3999999999999 509.3999999999996 484.99999999999994 513.4999999999995 484.8999999999999 C 519.5999999999996 484.0999999999999 525.4999999999995 481.5999999999999 530.7999999999995 478.5999999999999 C 537.0999999999995 474.8999999999999 541.7999999999995 469.0999999999999 546.9999999999995 464.0999999999999 C 550.8999999999995 459.8999999999999 553.9999999999995 454.9999999999999 557.8999999999995 450.69999999999993 C 560.0999999999996 447.99999999999994 562.6999999999995 446.0999999999999 565.3999999999995 443.69999999999993 C 570.4999999999995 438.99999999999994 575.8999999999995 434.29999999999995 579.5999999999996 428.3999999999999 C 581.5999999999996 425.19999999999993 583.8999999999995 422.5999999999999 586.2999999999996 419.69999999999993 C 589.3999999999996 415.69999999999993 591.0999999999996 410.99999999999994 593.2999999999996 406.49999999999994 C 594.8999999999996 403.29999999999995 596.1999999999996 399.8999999999999 597.4999999999997 396.3999999999999 C 599.2999999999996 391.69999999999993 600.6999999999997 386.69999999999993 603.3999999999996 382.2999999999999 C 605.7999999999996 378.3999999999999 608.6999999999996 374.0999999999999 610.9999999999997 369.8999999999999 C 611.6999999999997 368.2999999999999 612.4999999999997 366.49999999999994 611.6999999999997 364.7999999999999 C 611.5999999999997 363.8999999999999 611.2999999999997 362.7999999999999 610.3999999999997 362.2999999999999 C 609.7999999999997 362.0999999999999 609.2999999999997 362.6999999999999 608.9999999999998 363.0999999999999 C 605.6999999999998 366.7999999999999 602.4999999999998 370.5999999999999 599.1999999999998 374.3999999999999 C 591.4999999999998 383.5999999999999 583.3999999999999 392.49999999999994 573.9999999999998 399.99999999999994 C 566.8999999999997 406.19999999999993 559.3999999999997 411.79999999999995 552.0999999999998 417.69999999999993 C 543.2999999999998 425.79999999999995 533.9999999999998 433.69999999999993 526.4999999999998 442.99999999999994 C 518.8999999999997 452.59999999999997 514.4999999999998 464.19999999999993 506.7999999999998 473.79999999999995 C 504.2999999999998 476.69999999999993 501.2999999999998 478.99999999999994 498.2999999999998 481.29999999999995 C 504.5999999999998 473.79999999999995 510.0999999999998 465.59999999999997 515.2999999999997 457.29999999999995 C 515.5999999999997 457.19999999999993 515.8999999999997 456.79999999999995 516.0999999999997 456.59999999999997 C 516.3999999999996 456.29999999999995 516.6999999999997 455.59999999999997 516.5999999999997 455.2 C 517.0999999999997 454.4 517.5999999999997 453.5 518.0999999999997 452.7 C 519.7 451.1 520.8 449.2 521.9 447.2 L 521.9 447.2 z M 602.1 331.1 C 599.9 340.20000000000005 594.5 348.3 587.4 354.40000000000003 C 583.1999999999999 358.40000000000003 580.1999999999999 363.50000000000006 578.6 369.00000000000006 C 575.4 383.00000000000006 569.9 388.1000000000001 559.6 397.30000000000007 C 559.9 396.9000000000001 560.3000000000001 396.50000000000006 560.6 396.1000000000001 C 569.4 384.4000000000001 571.1 368.80000000000007 579.3000000000001 356.50000000000006 C 581.0000000000001 353.70000000000005 583.4000000000001 351.6000000000001 585.7 349.40000000000003 C 589.3000000000001 345.8 592.8000000000001 341.90000000000003 595.7 337.70000000000005 C 598.3000000000001 333.50000000000006 599.5 328.6 601.3000000000001 324.1 C 602.5000000000001 321.3 603.7 318.5 604.8000000000001 315.70000000000005 C 603.7 320.7 602.9 325.9 602.1 331.1 L 602.1 331.1 z M 554.1 398.9 C 560.4 386.4 566.3000000000001 373.2 572.1 360.4 C 575.5 353.4 578.1 345.9 582.2 339.29999999999995 C 588.3000000000001 330.4 596.3000000000001 323.09999999999997 603.3000000000001 314.99999999999994 C 602.0000000000001 318.3999999999999 600.8000000000001 320.69999999999993 599.5000000000001 323.99999999999994 C 598.1000000000001 327.49999999999994 597.1000000000001 331.19999999999993 595.4000000000001 334.59999999999997 C 592.0000000000001 340.4 586.9000000000001 344.99999999999994 581.9000000000001 349.49999999999994 C 576.3000000000001 355.19999999999993 573.0000000000001 362.8999999999999 569.7 370.09999999999997 C 566.9000000000001 377.29999999999995 564.4000000000001 385.29999999999995 560 391.9 C 558.3 394.4 556 396.5 554.1 398.9 L 554.1 398.9 L 554.1 398.9 L 554.1 398.9 z M 608.5 228 C 610.8 236.8 609.5 244 605.3 251.9 C 603.9 254.70000000000002 602.8 257.6 600.9 260.2 C 598.3 263.59999999999997 595.4 266.59999999999997 592.4 269.8 C 597.1999999999999 263.6 601 256.7 603.5 249.3 C 605.8 242.3 607.9 235.5 608.5 228 L 608.5 228 z M 586.4 270.8 C 588.5 267 590.8 263.3 592.6999999999999 259.40000000000003 C 595.4999999999999 253.40000000000003 598.4 247.50000000000003 601.3 241.60000000000002 C 602.8 237.70000000000002 603.6999999999999 233.60000000000002 604.6999999999999 229.60000000000002 C 605.4 226.10000000000002 605.4 222.50000000000003 606.9 219.20000000000002 C 607.6999999999999 222.9 606.6 226.9 606.1 230.60000000000002 C 605.4 235.10000000000002 604.4 239.40000000000003 602.7 243.60000000000002 C 599.6 254.60000000000002 593.2 264.5 585.4000000000001 272.8 C 585.7 272.2 586 271.5 586.4 270.8 L 586.4 270.8 z M 578 245.6 C 578 245.6 578 245.5 578 245.5 C 578 245.8 577.9 246.1 577.8 246.4 C 577.8 246.3 577.8 246.20000000000002 577.8 246.1 C 578 245.1 578.0999999999999 244.1 578.3 243.1 C 578.2 243.9 578.1 244.7 578 245.6 L 578 245.6 z M 568 129.8 C 571.8 135.3 575.6 141 577.3 147.60000000000002 C 581 157.60000000000002 580.6999999999999 168.70000000000002 583.5999999999999 178.90000000000003 C 585.3 185.20000000000005 587.3 191.50000000000003 587.3 198.10000000000002 C 586.9 206.10000000000002 585.0999999999999 214.00000000000003 582.9 221.70000000000002 C 581.5 227.50000000000003 579.1999999999999 233.00000000000003 578.6999999999999 239.00000000000003 C 578.6999999999999 238.30000000000004 578.8 237.60000000000002 578.8 236.90000000000003 C 578.5999999999999 229.90000000000003 581.1999999999999 223.20000000000005 581.1999999999999 216.20000000000005 C 581.5999999999999 212.40000000000003 581.4999999999999 208.50000000000006 580.9999999999999 204.70000000000005 C 580.7999999999998 195.60000000000005 580.0999999999999 186.50000000000006 579.5999999999999 177.50000000000006 C 579.1999999999999 171.10000000000005 579.3 164.60000000000005 577.8999999999999 158.40000000000006 C 576.2999999999998 152.30000000000007 573.7999999999998 146.40000000000006 570.9999999999999 140.80000000000007 C 567.4999999999999 134.40000000000006 564.3999999999999 127.80000000000007 559.9999999999999 121.90000000000006 C 556.9999999999999 118.30000000000007 553.2999999999998 115.20000000000006 550.2999999999998 111.50000000000006 C 557.7 116.1 563.5 122.4 568 129.8 L 568 129.8 z M 574.4 179.7 C 572.9 170.5 570.8 161.39999999999998 566.6 153 C 563.2 145.5 560.2 137.8 556.2 130.6 C 553.6 126.19999999999999 551.5 121.5 549 117.1 C 545.5 111.89999999999999 540.3 108.1 537.5 102.39999999999999 C 540.5 104.49999999999999 542.2 107.69999999999999 545 110.3 C 548.3 113.3 551 116.8 554 120 C 556.2 122.3 558.5 124.4 560.2 127 C 564 133.1 567.6 139.8 570.8000000000001 146.7 C 573.0000000000001 151.79999999999998 575.3000000000001 157 575.9000000000001 162.6 C 576.7 174.4 577.4000000000001 185.7 578.1000000000001 197.7 C 578.5000000000001 205.89999999999998 579.6000000000001 213.89999999999998 578.3000000000002 222.2 C 578.0000000000002 218.29999999999998 577.6000000000001 214.5 577.3000000000002 210.7 C 577.3000000000002 210.79999999999998 577.3000000000002 210.89999999999998 577.3000000000002 210.89999999999998 L 577.3000000000002 210.99999999999997 C 576.8 200.5 576.5 190 574.4 179.7 L 574.4 179.7 z M 191.3 28.3 C 188.3 33.6 185.20000000000002 38.9 181.5 43.7 C 175.1 51.6 165.6 55.800000000000004 157.3 61.300000000000004 C 152.9 64.10000000000001 150.3 68.60000000000001 147 72.4 C 144 75.5 140.4 77.9 136.6 80 C 131 83.8 126 88.4 120.69999999999999 92.6 C 121.1 91.89999999999999 121.49999999999999 91.3 121.89999999999999 90.6 C 125.8 83.3 130 75.89999999999999 135.79999999999998 69.89999999999999 C 139.1 66.6 142.79999999999998 63.19999999999999 146.49999999999997 60.29999999999999 C 150.29999999999998 57.59999999999999 154.59999999999997 55.49999999999999 158.69999999999996 53.29999999999999 C 173.79999999999995 45.49999999999999 186.19999999999996 33.599999999999994 195.89999999999998 19.69999999999999 C 195.1 22.9 192.8 25.4 191.3 28.3 L 191.3 28.3 z M 116.1 90.3 C 118.5 83.2 122.69999999999999 76.89999999999999 126.69999999999999 70.5 C 129.89999999999998 65.4 133 60.3 136.89999999999998 55.6 C 145.29999999999998 45.900000000000006 155.79999999999998 38.3 165.99999999999997 30.700000000000003 C 177.69999999999996 23.000000000000004 189.59999999999997 15.400000000000002 201.09999999999997 7.300000000000004 C 191.49999999999997 23.400000000000006 179.39999999999998 38.7 162.79999999999995 47.900000000000006 C 158.29999999999995 50.60000000000001 153.39999999999995 52.7 148.89999999999995 55.400000000000006 C 142.89999999999995 59.2 137.69999999999996 64 132.99999999999994 69.2 C 129.59999999999994 73.3 126.69999999999995 77.8 123.99999999999994 82.3 C 120.49999999999994 88.6 117.29999999999994 95.3 112.29999999999994 100.6 C 113.7 97.2 114.9 93.8 116.1 90.3 L 116.1 90.3 z M 114.6 54.6 C 114.69999999999999 54.7 114.69999999999999 54.9 114.8 55 L 114.8 55.1 C 112.8 59 109.7 62.2 107.39999999999999 65.9 C 104.1 71.80000000000001 101.6 78.2 100.19999999999999 84.9 C 99.29999999999998 89 99.39999999999999 93.30000000000001 98.6 97.5 C 96.69999999999999 103.7 93.5 109.5 88.6 114 C 81.8 120.5 75.69999999999999 127.6 70.6 135.5 C 71.1 134 71.5 132.5 71.89999999999999 131 C 73.1 125.6 75.39999999999999 121 78.3 116.3 C 82.3 110 83.6 102.6 85.7 95.6 C 86.9 90.19999999999999 90.2 85.6 93.4 81.1 C 95.80000000000001 77.5 98 73.8 100.7 70.39999999999999 C 105.1 64.8 110.4 60.1 114.6 54.6 L 114.6 54.6 z M 67.9 117.7 C 69.80000000000001 109.10000000000001 72.80000000000001 100.80000000000001 76.4 92.80000000000001 C 79.7 85.9 84.30000000000001 79.80000000000001 89 73.70000000000002 C 95.3 65.70000000000002 102.6 58.100000000000016 111.8 53.600000000000016 C 108.1 57.90000000000001 104.2 61.80000000000001 100.5 66.10000000000002 C 95.9 71.90000000000002 92.2 78.30000000000003 88 84.40000000000002 C 84.1 90.60000000000002 82.8 98.00000000000001 80.8 104.90000000000002 C 79 110.30000000000003 75.8 114.80000000000003 73.2 120.00000000000001 C 69.60000000000001 128.10000000000002 68.3 137.10000000000002 65.3 145.5 C 66 136.2 66.2 126.8 67.9 117.7 L 67.9 117.7 z M 24.2 226.9 C 18.9 219.4 17 210.4 15.899999999999999 201.4 C 15.2 195 14.499999999999998 188.6 14.799999999999999 182.20000000000002 C 15.6 170.00000000000003 18.5 158.00000000000003 21.7 146.3 C 25.2 136.4 30.1 126.9 36.4 118.50000000000001 C 32.5 126.70000000000002 29.599999999999998 135.3 27.599999999999998 144.20000000000002 C 26.4 148.70000000000002 25.2 153.20000000000002 24.599999999999998 157.8 C 23.7 166.5 23.4 175.10000000000002 23.2 183.8 C 23.2 190.3 22.599999999999998 196.8 22.599999999999998 203.3 C 22.7 212.20000000000002 24.299999999999997 221.10000000000002 25.9 229.8 C 25.3 228.8 24.8 227.8 24.2 226.9 L 24.2 226.9 z M 32.3 243.4 C 32.199999999999996 242.9 31.999999999999996 242.5 31.9 242 C 31.299999999999997 239.8 30.599999999999998 237.7 29.9 235.5 C 27.099999999999998 225.4 25.599999999999998 214.8 25 204.4 C 24.9 197.20000000000002 25.5 190.1 25.5 182.9 C 25.8 169.6 25.9 156.1 30 143.3 C 31.8 135 34.8 127.50000000000001 38.3 119.60000000000001 C 39.5 116.50000000000001 40.3 113.4 42.599999999999994 110.9 C 42.099999999999994 121.5 40.099999999999994 132.1 36.099999999999994 142 C 34.699999999999996 146.1 34.49999999999999 150 33.699999999999996 154.3 C 32.99999999999999 157.4 32.099999999999994 160.5 31.599999999999994 163.70000000000002 C 30.199999999999996 171.20000000000002 30.499999999999993 178.9 30.299999999999994 186.50000000000003 C 30.299999999999994 195.70000000000002 29.299999999999994 204.90000000000003 29.899999999999995 214.10000000000002 C 29.3 223.8 33.1 233.4 32.3 243.4 L 32.3 243.4 z M 490.8 509 C 496 508.7 501.1 509.5 506.2 509.3 C 500.59999999999997 511.2 495 512.8 489.09999999999997 513.1 C 487.2 513.1 485.4 512.4 483.49999999999994 512.3000000000001 C 478.79999999999995 511.70000000000005 474.19999999999993 512.6 469.69999999999993 513.7 C 476.4 511.1 483.6 509.8 490.8 509 L 490.8 509 z M 485.5 514.6 C 492.8 516.1 500.2 513.5 507.1 511.3 C 504.6 513.1 501.70000000000005 514.1 498.90000000000003 515.3 C 495.40000000000003 516.8 492.00000000000006 518.5999999999999 488.1 518.9 C 481.5 519.3 474.90000000000003 517.9 468.3 517.1 C 474 516.2 479.7 513.7 485.5 514.6 L 485.5 514.6 z M 576.4 318.1 C 575.9 319.70000000000005 574.6999999999999 321.5 573.3 323.40000000000003 C 573.8 319.40000000000003 573.1999999999999 315.50000000000006 573.5999999999999 311.50000000000006 C 573.9999999999999 307.80000000000007 574.5999999999999 303.70000000000005 575.3999999999999 299.90000000000003 C 575.4999999999999 300.1 575.5999999999999 300.3 575.6999999999998 300.50000000000006 C 576.7 306.2 577.8 312.3 576.4 318.1 L 576.4 318.1 z M 335.2 40.2 C 334.3 40.2 333.3 40.2 332.4 40.2 C 329.2 40.2 325.9 40.1 322.7 40.1 C 322.3 40.1 322 40.1 321.59999999999997 40.1 C 326.1 39.1 330.6 40 335.2 40.2 z M 200.5 69.9 C 216.3 61.2 233.3 55.00000000000001 250.4 49.300000000000004 C 267.5 43.400000000000006 285.2 38.7 303.4 38.7 C 304.29999999999995 38.7 305.2 38.7 306.09999999999997 38.7 C 303.7 39.400000000000006 301.29999999999995 40.2 298.99999999999994 41 C 296.59999999999997 41.3 294.19999999999993 41.7 291.79999999999995 42.2 C 286.99999999999994 43.1 282.19999999999993 44.400000000000006 277.49999999999994 45.900000000000006 C 251.79999999999995 54.2 225.99999999999994 62.50000000000001 200.09999999999994 70.10000000000001 C 200.2 70 200.4 69.9 200.5 69.9 L 200.5 69.9 z M 112 128.6 C 128.4 114.89999999999999 145.4 101.5 164.5 91.6 C 153.1 101 142.5 111.5 133.1 123 C 125.89999999999999 131.6 118.8 140.3 111.89999999999999 149.1 C 108.3 151.2 104.49999999999999 153.2 100.69999999999999 154.9 C 96.1 157.4 91.6 160.3 87.79999999999998 163.9 C 84.09999999999998 167.8 80.89999999999998 172.1 77.69999999999999 176.3 C 72.99999999999999 182.8 68.19999999999999 189.4 64.6 196.5 C 64.6 196.6 64.5 196.6 64.5 196.6 C 62.9 198.2 61.1 199.6 59.9 201.5 C 59.699999999999996 201.7 59.6 201.9 59.4 202.1 C 56.5 205.4 53.6 208.7 51.099999999999994 212.4 C 50.49999999999999 213.1 49.99999999999999 213.8 49.49999999999999 214.5 C 51.599999999999994 208.4 54.099999999999994 202.4 56.99999999999999 196.6 C 70.2 170.3 89.3 147.3 112 128.6 L 112 128.6 z M 116.5 162 L 116.5 162 C 108.5 170.4 98.8 177.1 88.6 182.9 C 90.19999999999999 180.6 91.8 178.3 93.5 176 C 96.1 174.2 98.8 172.4 101.6 171 C 105.19999999999999 168.5 108.5 165.8 112.19999999999999 163.5 C 115.49999999999999 161 118.69999999999999 158.2 121.89999999999999 155.7 C 120.2 157.8 118.4 160 116.5 162 L 116.5 162 L 116.5 162 z M 78.5 186.5 C 81.9 183.6 85.6 181 89.5 178.8 C 88.1 180.70000000000002 86.8 182.70000000000002 85.4 184.70000000000002 C 83.2 185.9 80.9 187.10000000000002 78.7 188.20000000000002 C 78.8 187.9 78.9 187.60000000000002 78.8 187.4 C 78.8 187.1 78.7 186.7 78.5 186.5 L 78.5 186.5 z M 111.9 159 C 108.60000000000001 161.1 105.5 163.3 102.4 165.6 C 101.60000000000001 166.1 100.80000000000001 166.6 100 167.1 C 102.7 163.5 105.4 159.9 108.2 156.29999999999998 C 114.60000000000001 153.2 120.7 149.49999999999997 126.30000000000001 145.1 C 132.20000000000002 140.6 136.5 134.5 141.3 129.1 C 137 135.2 132.5 141.2 127.20000000000002 146.5 C 122.5 151.2 117.1 155 111.9 159 L 111.9 159 z M 100.9 163.3 C 99.5 165.20000000000002 98 167.20000000000002 96.60000000000001 169.10000000000002 C 95.60000000000001 169.70000000000002 94.60000000000001 170.3 93.60000000000001 171.10000000000002 C 90.30000000000001 173.70000000000002 86.60000000000001 175.60000000000002 83.2 178.00000000000003 C 80.2 180.30000000000004 77.2 182.80000000000004 74.4 185.30000000000004 C 75 184.50000000000003 75.60000000000001 183.60000000000005 76.2 182.80000000000004 C 80.3 177.40000000000003 84.5 171.40000000000003 89.60000000000001 166.70000000000005 C 93.7 163.50000000000006 98.2 160.60000000000005 103.10000000000001 158.70000000000005 C 103.80000000000001 158.40000000000003 104.50000000000001 158.10000000000005 105.2 157.80000000000004 C 103.7 159.6 102.3 161.4 100.9 163.3 L 100.9 163.3 z M 46.1 225.6 C 47.300000000000004 223.1 48.6 220.5 50.1 218.1 C 51.7 215.9 53.6 213.79999999999998 55.6 211.9 C 58.300000000000004 209.20000000000002 60.4 206 62.9 203.1 C 63.1 202.9 63.3 202.7 63.5 202.5 C 63.8 202.3 64 202.1 64.3 201.9 C 64.8 202.20000000000002 65.5 201.70000000000002 65.89999999999999 200.9 C 65.99999999999999 200.8 65.99999999999999 200.70000000000002 66.1 200.6 C 66.89999999999999 200 67.69999999999999 199.4 68.5 198.79999999999998 C 70.1 197.49999999999997 71.4 195.89999999999998 72.7 194.29999999999998 C 75.7 192.49999999999997 79.10000000000001 191.1 82.3 189.6 L 82.39999999999999 189.5 C 78.6 195.3 74.99999999999999 201.2 71.69999999999999 207.3 C 55.89999999999999 238.60000000000002 45.19999999999999 272.6 40.59999999999999 307.4 C 40.499999999999986 306.29999999999995 40.399999999999984 305.09999999999997 40.29999999999999 304 C 38.2 278 39.2 251 46.1 225.6 L 46.1 225.6 z M 40.3 328.4 C 42.599999999999994 342.29999999999995 46.599999999999994 355.59999999999997 52.099999999999994 368.29999999999995 C 48.599999999999994 363.4 44.699999999999996 358.9 41.49999999999999 353.9 C 41.099999999999994 353.29999999999995 40.79999999999999 352.7 40.39999999999999 352.09999999999997 C 40 344.2 40 336.3 40.3 328.4 z M 7.2 288.9 C 7.3 289 7.3 289.2 7.4 289.29999999999995 C 7.7 289.69999999999993 7.9 289.99999999999994 8.200000000000001 290.4 C 8.4 290.79999999999995 8.600000000000001 291.2 8.8 291.59999999999997 C 9.3 292.7 9.9 293.7 10.4 294.79999999999995 C 11.8 298.9 13.4 302.9 15.600000000000001 306.69999999999993 C 16.8 308.69999999999993 17.900000000000002 310.79999999999995 19 312.79999999999995 C 19.1 313.09999999999997 19.3 313.29999999999995 19.4 313.59999999999997 C 20.2 315.29999999999995 21 316.9 21.799999999999997 318.59999999999997 C 22.099999999999998 319.29999999999995 22.4 320.09999999999997 22.699999999999996 320.9 C 22.999999999999996 321.79999999999995 23.299999999999997 322.7 23.599999999999994 323.7 C 23.899999999999995 324.5 24.199999999999996 325.2 24.499999999999993 326 C 24.799999999999994 326.6 25.099999999999994 327.2 25.499999999999993 327.8 C 25.799999999999994 328.40000000000003 26.199999999999992 328.90000000000003 26.599999999999994 329.5 C 27.099999999999994 330.4 27.599999999999994 331.2 27.999999999999993 332.1 C 27.999999999999993 332.20000000000005 28.099999999999994 332.3 28.099999999999994 332.40000000000003 C 29.399999999999995 334.90000000000003 30.599999999999994 337.3 31.599999999999994 339.90000000000003 C 33.199999999999996 343.70000000000005 34.39999999999999 347.8 36.699999999999996 351.20000000000005 C 39.4 356.70000000000005 43.099999999999994 361.6 46.89999999999999 366.40000000000003 C 47.099999999999994 366.70000000000005 47.39999999999999 367.1 47.599999999999994 367.40000000000003 C 47.599999999999994 367.40000000000003 47.599999999999994 367.50000000000006 47.699999999999996 367.50000000000006 C 47.8 367.70000000000005 47.99999999999999 367.90000000000003 48.099999999999994 368.1000000000001 C 47.8 367.80000000000007 47.49999999999999 367.50000000000006 47.199999999999996 367.2000000000001 C 45.699999999999996 365.9000000000001 44.099999999999994 364.5000000000001 42.699999999999996 363.0000000000001 C 40.099999999999994 359.2000000000001 35.99999999999999 356.10000000000014 33.89999999999999 351.9000000000001 C 31.89999999999999 348.30000000000007 29.39999999999999 345.0000000000001 27.79999999999999 341.2000000000001 C 25.79999999999999 338.1000000000001 25.19999999999999 334.3000000000001 23.39999999999999 331.1000000000001 C 20.89999999999999 325.4000000000001 16.199999999999992 320.80000000000007 15.199999999999992 314.50000000000006 C 14.199999999999992 311.30000000000007 12.399999999999991 308.40000000000003 11.299999999999992 305.30000000000007 C 10.699999999999992 303.00000000000006 10.799999999999992 300.50000000000006 10.399999999999991 298.20000000000005 C 10.299999999999992 295.6 8.799999999999992 293.6 7.8999999999999915 291.30000000000007 C 7.499999999999991 290.30000000000007 7.199999999999991 289.30000000000007 6.8999999999999915 288.4000000000001 C 7.1 288.5 7.1 288.7 7.2 288.9 L 7.2 288.9 z M 13.7 338.1 C 10.5 333.5 8.6 328.1 7.499999999999999 322.6 C 5.799999999999999 312.90000000000003 4.899999999999999 303 3.799999999999999 293.1 C 3.5999999999999988 291.90000000000003 3.399999999999999 290.6 3.299999999999999 289.40000000000003 C 3.299999999999999 288.90000000000003 3.199999999999999 288.3 3.199999999999999 287.70000000000005 C 3.199999999999999 287.40000000000003 3.0999999999999988 287.1 3.0999999999999988 286.80000000000007 C 3.0999999999999988 286.9000000000001 3.199999999999999 287.00000000000006 3.199999999999999 287.1000000000001 C 3.199999999999999 286.6000000000001 3.199999999999999 286.1000000000001 3.199999999999999 285.6000000000001 C 3.199999999999999 284.80000000000007 3.199999999999999 283.80000000000007 3.4999999999999987 283.1000000000001 C 3.7999999999999985 283.80000000000007 4.099999999999999 284.50000000000006 4.199999999999998 285.00000000000006 C 4.999999999999998 287.70000000000005 5.299999999999999 290.50000000000006 6.299999999999999 293.20000000000005 C 6.899999999999999 295.00000000000006 8.1 296.40000000000003 8.799999999999999 298.1 C 9.6 301 9.399999999999999 304 10.2 306.90000000000003 C 11.2 309.40000000000003 12.299999999999999 311.90000000000003 13.5 314.3 C 14.4 316.40000000000003 14.8 318.7 15.6 320.90000000000003 C 17.2 324.40000000000003 19.5 327.40000000000003 21.3 330.8 C 22.400000000000002 332.90000000000003 23.3 334.90000000000003 24.2 337.2 C 24.7 338.9 25.099999999999998 340.7 26.099999999999998 342.3 C 28.2 347.2 31.299999999999997 351.6 33.8 356.3 C 35 358.3 36.699999999999996 359.90000000000003 38.3 361.5 C 40.4 363.8 42.099999999999994 366.5 44.599999999999994 368.5 C 45.49999999999999 369.3 46.39999999999999 370.2 47.3 371.1 C 44.9 369.1 43 366.8 40.5 365 C 37.5 362.5 33.8 360.9 31.1 358.1 C 30.200000000000003 357.3 29.3 356.5 28.400000000000002 355.70000000000005 C 28.200000000000003 355.50000000000006 28.1 355.30000000000007 27.900000000000002 355.1 C 27.500000000000004 354.70000000000005 27.1 354.20000000000005 26.700000000000003 353.8 C 21.2 349.4 17 344 13.7 338.1 L 13.7 338.1 z M 311.2 565.9 C 297.5 567.5 283.7 567.5 270 567.1999999999999 C 253.5 566.9 237 566.4 220.6 564.3 C 201.29999999999998 562.1999999999999 183.1 554.5999999999999 166.3 545.1999999999999 C 149.70000000000002 535.9999999999999 134.20000000000002 524.9 119.9 512.4999999999999 C 103.4 497.9999999999999 88.2 481.5999999999999 76.9 462.5999999999999 C 66.10000000000001 445.2999999999999 56.2 427.19999999999993 49.900000000000006 407.69999999999993 C 45.900000000000006 395.79999999999995 43.300000000000004 383.5999999999999 41.800000000000004 371.19999999999993 C 44.7 373.3999999999999 47.50000000000001 375.69999999999993 50.10000000000001 378.29999999999995 C 53.80000000000001 381.9 58.20000000000001 384.69999999999993 61.900000000000006 388.19999999999993 C 64.4 392.5999999999999 67 396.99999999999994 69.80000000000001 401.29999999999995 C 70.10000000000001 401.99999999999994 70.50000000000001 402.59999999999997 70.80000000000001 403.29999999999995 C 71.00000000000001 403.69999999999993 71.30000000000001 403.9 71.50000000000001 403.9 C 78.00000000000001 413.59999999999997 85.20000000000002 422.9 92.80000000000001 431.79999999999995 C 111.60000000000001 453.09999999999997 133.5 471.69999999999993 157.10000000000002 487.4 C 177.90000000000003 501.09999999999997 200.40000000000003 512 222.8 522.6999999999999 C 245.4 533.1999999999999 268.3 543.6999999999999 292.8 548.8 C 317.2 553.0999999999999 342.1 551.6999999999999 366.70000000000005 550.0999999999999 C 348.7 556.6 330.5 563.7 311.2 565.9 L 311.2 565.9 z M 394.7 539.7 C 390.9 541.1 387.3 543 383.2 543.3000000000001 C 356.5 546.5000000000001 329.4 547.9000000000001 302.6 545.3000000000001 C 288 543.5000000000001 274 539.0000000000001 260.40000000000003 533.7 C 241.50000000000003 526.4000000000001 223.30000000000004 517.6 205.10000000000002 508.70000000000005 C 187.3 499.90000000000003 169.60000000000002 490.40000000000003 153.3 479.1 C 128.60000000000002 461.90000000000003 105.9 441.5 86.9 418 C 81.5 411.2 76.4 404.3 71.7 397 C 71.7 396.4 71.60000000000001 395.9 71.2 396.3 C 71 396 70.8 395.7 70.60000000000001 395.40000000000003 C 65.10000000000001 384.1 66.50000000000001 371.1 67.60000000000001 359.00000000000006 C 69.2 357.70000000000005 68.80000000000001 355.20000000000005 69.10000000000001 353.30000000000007 C 69.50000000000001 348.30000000000007 69.80000000000001 343.20000000000005 70.80000000000001 338.30000000000007 C 73.70000000000002 326.1000000000001 79.4 314.50000000000006 80.80000000000001 301.80000000000007 C 83.60000000000001 286.4000000000001 73.4 284.30000000000007 76.70000000000002 271.6000000000001 C 78.70000000000002 264.7000000000001 80.80000000000001 257.9000000000001 81.30000000000001 250.70000000000007 C 81.30000000000001 244.60000000000008 80.9 238.30000000000007 79.4 232.30000000000007 C 78.4 228.50000000000006 74.7 225.60000000000008 75.2 221.50000000000006 C 75.3 220.50000000000006 75.4 219.50000000000006 75 218.60000000000005 C 72.8 214.50000000000006 70.9 223.80000000000004 70.6 225.70000000000005 C 69.5 231.40000000000003 67.3 237.10000000000005 65.5 242.70000000000005 C 63.2 251.00000000000006 59.3 258.70000000000005 56.3 266.70000000000005 C 53.199999999999996 274.80000000000007 51.5 283.30000000000007 51.5 291.90000000000003 C 51 302.20000000000005 53.4 312.40000000000003 55.3 322.40000000000003 C 56.5 328.40000000000003 58.3 334.20000000000005 59.699999999999996 340.20000000000005 C 61.199999999999996 345.90000000000003 63.699999999999996 351.30000000000007 65.19999999999999 357.1 C 65.29999999999998 362.6 64.19999999999999 368.1 64.39999999999999 373.70000000000005 C 64.6 378.40000000000003 64.99999999999999 383.20000000000005 66.19999999999999 387.80000000000007 C 65.6 386.70000000000005 64.89999999999999 385.6000000000001 64.1 384.6000000000001 C 55.099999999999994 368.80000000000007 47.99999999999999 351.9000000000001 44.3 333.9000000000001 C 43.5 330.0000000000001 42.699999999999996 326.1000000000001 42.099999999999994 322.2000000000001 C 41.699999999999996 318.9000000000001 40.699999999999996 315.6000000000001 41.199999999999996 312.3000000000001 C 43.099999999999994 295.60000000000014 46.599999999999994 279.10000000000014 51.199999999999996 263.0000000000001 C 56.8 244.40000000000012 63.5 226.1000000000001 72.3 208.7000000000001 C 76.1 201.5000000000001 80.39999999999999 194.5000000000001 84.89999999999999 187.7000000000001 C 89.99999999999999 184.9000000000001 94.99999999999999 182.1000000000001 99.89999999999999 178.9000000000001 C 105.6 174.8000000000001 111.1 170.4000000000001 116.1 165.4000000000001 C 121.89999999999999 159.2000000000001 127.19999999999999 152.50000000000009 132.1 145.60000000000008 C 137.2 137.80000000000007 143.79999999999998 130.9000000000001 147.79999999999998 122.40000000000008 C 148.29999999999998 122.10000000000008 148.79999999999998 122.00000000000007 149.39999999999998 121.90000000000008 C 150.99999999999997 121.20000000000007 151.2 118.30000000000008 150.39999999999998 117.00000000000007 C 148.39999999999998 114.20000000000007 141.59999999999997 122.00000000000007 139.89999999999998 123.90000000000008 C 134.99999999999997 129.20000000000007 130.79999999999998 135.20000000000007 125.09999999999998 139.60000000000008 C 122.09999999999998 142.00000000000009 118.89999999999998 144.30000000000007 115.59999999999998 146.4000000000001 C 122.39999999999998 137.8000000000001 129.39999999999998 129.4000000000001 136.49999999999997 121.00000000000009 C 143.09999999999997 113.30000000000008 150.29999999999998 106.10000000000008 157.79999999999998 99.40000000000009 C 161.6 96.1000000000001 165.39999999999998 92.90000000000009 169.29999999999998 89.90000000000009 C 171.79999999999998 87.90000000000009 174.39999999999998 86.00000000000009 177.39999999999998 84.90000000000009 C 190.99999999999997 79.00000000000009 205.29999999999998 74.8000000000001 219.59999999999997 70.6000000000001 C 232 67.4 244 63.5 256 59.5 C 257.8 58.7 259.7 58.1 261.6 57.5 C 263.20000000000005 57 264.70000000000005 56.5 266.20000000000005 55.9 C 267.6 55.4 269.1 54.8 270.50000000000006 54.3 C 272.1000000000001 53.8 273.6000000000001 53.199999999999996 275.20000000000005 52.8 C 276.70000000000005 52.4 278.20000000000005 52.099999999999994 279.70000000000005 51.8 C 280.20000000000005 51.699999999999996 280.80000000000007 51.599999999999994 281.30000000000007 51.5 L 281.30000000000007 51.5 C 282.80000000000007 51.3 284.4000000000001 51.1 285.9000000000001 50.9 C 286.6000000000001 50.699999999999996 287.30000000000007 50.6 288.1000000000001 50.4 C 289.6000000000001 49.699999999999996 291.2000000000001 49 292.7000000000001 48.3 C 296.7000000000001 47.5 300.8000000000001 47 304.9000000000001 46.599999999999994 C 319.2000000000001 45.699999999999996 333.5000000000001 46.39999999999999 347.80000000000007 46.39999999999999 C 358.30000000000007 46.49999999999999 368.80000000000007 46.599999999999994 379.20000000000005 47.49999999999999 C 390.30000000000007 50.89999999999999 401.40000000000003 54.79999999999999 412.50000000000006 58.3 C 419.40000000000003 62.4 426.00000000000006 66.89999999999999 432.90000000000003 71.1 C 446.8 79.69999999999999 462.20000000000005 86.19999999999999 472.40000000000003 99.5 C 480.6 109.9 487.3 121.3 494.20000000000005 132.5 C 499.1 140.5 503.90000000000003 148.5 507.80000000000007 157 C 511.00000000000006 164.3 513.6 171.9 515.9000000000001 179.5 C 515.0000000000001 177.5 513.9000000000001 175.6 512.6000000000001 173.9 C 511.5000000000001 172.6 509.90000000000015 170.6 508.70000000000016 169.3 C 505.8000000000002 166.5 502.40000000000015 164.20000000000002 499.8000000000002 161.10000000000002 C 499.20000000000016 160.40000000000003 499.20000000000016 159.20000000000002 498.3000000000002 158.90000000000003 C 497.20000000000016 158.50000000000003 496.50000000000017 159.80000000000004 496.4000000000002 160.70000000000005 C 495.8000000000002 163.40000000000003 497.3000000000002 165.80000000000004 498.3000000000002 168.10000000000005 C 500.00000000000017 171.60000000000005 501.3000000000002 175.10000000000005 502.20000000000016 178.90000000000006 C 505.70000000000016 189.40000000000006 506.60000000000014 200.50000000000006 508.60000000000014 211.30000000000007 C 510.0000000000001 221.20000000000007 511.40000000000015 231.10000000000008 516.1000000000001 240.10000000000008 C 520.0000000000001 249.10000000000008 524.9000000000001 257.6000000000001 529.0000000000001 266.50000000000006 C 531.7000000000002 272.70000000000005 534.2000000000002 278.70000000000005 534.7000000000002 285.6000000000001 C 534.8000000000002 286.2000000000001 534.8000000000002 286.80000000000007 534.9000000000002 287.4000000000001 C 534.9000000000002 295.0000000000001 534.8000000000002 302.7000000000001 534.7000000000002 310.30000000000007 C 534.5000000000001 323.6000000000001 534.1000000000001 337.00000000000006 532.2000000000002 350.20000000000005 C 530.3000000000002 362.90000000000003 527.4000000000002 374.80000000000007 524.2000000000002 387.40000000000003 C 519.5000000000001 405.3 514.8000000000002 423.3 505.60000000000014 439.50000000000006 C 498.70000000000016 450.70000000000005 490.70000000000016 461.1000000000001 482.20000000000016 471.00000000000006 C 482.70000000000016 470.20000000000005 483.20000000000016 469.30000000000007 483.60000000000014 468.40000000000003 C 487.0000000000001 460.90000000000003 491.3000000000001 453.50000000000006 492.10000000000014 445.20000000000005 C 493.70000000000016 442.70000000000005 494.40000000000015 439.6 495.70000000000016 436.90000000000003 C 497.00000000000017 433.70000000000005 498.40000000000015 430.50000000000006 499.90000000000015 427.3 C 504.60000000000014 416.8 509.50000000000017 406.1 512.1000000000001 394.8 C 513.6000000000001 387.1 511.5000000000001 379.3 511.0000000000001 371.6 C 510.9000000000001 369.70000000000005 510.9000000000001 367.70000000000005 510.4000000000001 365.8 C 508.5000000000001 358 505.30000000000007 350.5 505.30000000000007 342.40000000000003 C 505.20000000000005 339.90000000000003 505.30000000000007 337.1 504.6000000000001 334.70000000000005 C 504.30000000000007 333.70000000000005 503.80000000000007 332.70000000000005 504.1000000000001 331.6 C 504.2000000000001 330.40000000000003 505.1000000000001 328.90000000000003 504.2000000000001 327.8 C 504.0000000000001 327.6 503.6000000000001 327.6 503.3000000000001 327.7 C 502.3000000000001 328.2 501.60000000000014 329.4 501.40000000000015 330.4 C 500.10000000000014 332.79999999999995 500.60000000000014 335.59999999999997 500.3000000000001 338.2 C 499.90000000000015 341.8 499.40000000000015 345.4 498.90000000000015 349 C 497.90000000000015 356.1 497.8000000000001 363.2 496.40000000000015 370.3 C 494.8000000000001 377.5 493.10000000000014 384.8 491.10000000000014 391.90000000000003 C 490.10000000000014 395.3 489.10000000000014 398.6 488.5000000000001 402.1 C 486.9000000000001 410.1 488.8000000000001 418.1 489.10000000000014 426.20000000000005 C 489.10000000000014 435.80000000000007 490.40000000000015 445.70000000000005 487.5000000000001 455.00000000000006 C 486.8000000000001 456.6000000000001 486.10000000000014 458.20000000000005 485.4000000000001 459.80000000000007 C 484.4000000000001 461.70000000000005 483.5000000000001 463.70000000000005 482.6000000000001 465.70000000000005 C 482.2000000000001 466.40000000000003 481.80000000000007 467.20000000000005 481.30000000000007 467.90000000000003 C 479.50000000000006 470.70000000000005 477.4000000000001 473.6 475.50000000000006 476.6 C 474.70000000000005 478 473.70000000000005 479.5 473.20000000000005 481.1 C 467.30000000000007 487.5 461.30000000000007 493.8 455.20000000000005 500 C 443.6 511.5 431.00000000000006 522.2 416.20000000000005 529.6 C 409.2 533.5 402 536.7 394.7 539.7 L 394.7 539.7 z M 62.6 325.4 C 63.4 329.7 64.7 333.9 65.5 338.2 C 65.8 341.59999999999997 65.5 345.09999999999997 65.6 348.59999999999997 C 61.39999999999999 337.09999999999997 58.89999999999999 325.09999999999997 56.89999999999999 313.09999999999997 C 54.599999999999994 302.29999999999995 53.69999999999999 290.99999999999994 55.79999999999999 280.09999999999997 C 57.39999999999999 272.4 60.69999999999999 265.2 63.79999999999999 257.99999999999994 C 67.19999999999999 249.09999999999994 70.1 239.89999999999995 72.79999999999998 230.79999999999995 C 73.39999999999998 239.59999999999997 72.19999999999999 248.39999999999995 69.39999999999998 256.69999999999993 C 67.89999999999998 264.3999999999999 64.39999999999998 271.19999999999993 61.99999999999998 278.69999999999993 C 59.799999999999976 284.79999999999995 59.09999999999998 291.29999999999995 59.09999999999998 297.69999999999993 C 60.2 306.9 60.6 316.2 62.6 325.4 L 62.6 325.4 z M 63 304.9 C 62.8 302 62.3 299.09999999999997 62.1 296.2 C 62.1 292.59999999999997 62.6 289 63.2 285.5 C 65 278.2 68.60000000000001 271.6 70.5 264.4 C 71.7 258.5 73.8 252.79999999999998 74.8 246.79999999999998 C 75.39999999999999 242.39999999999998 75.7 237.89999999999998 75.7 233.39999999999998 C 78.60000000000001 238.49999999999997 78.10000000000001 244.79999999999998 78.60000000000001 250.49999999999997 C 78.30000000000001 257.79999999999995 75.60000000000001 264.5 73.9 271.5 C 73 275.8 73.10000000000001 280.3 74.30000000000001 284.4 C 75.60000000000001 288.4 78.4 292 78.50000000000001 296.4 C 78.30000000000001 310.7 71.20000000000002 323.59999999999997 68.30000000000001 337.5 C 68.30000000000001 337.2 68.30000000000001 336.9 68.20000000000002 336.6 C 68.00000000000001 334.5 67.40000000000002 332.5 67.00000000000001 330.5 C 65 322.1 63.5 313.6 63 304.9 L 63 304.9 z M 534.9 272.8 C 534.9 273.6 534.9 274.5 535 275.3 C 534.8 274.6 534.6 274 534.4 273.3 C 534.6 273.1 534.7 273 534.9 272.8 L 534.9 272.8 z M 534.5 241.5 C 533.2 233.6 531.3 225.9 529.2 218.2 C 531.5 224 533.4000000000001 229.89999999999998 534.3000000000001 236.1 C 534.5 237.9 534.5 239.7 534.5 241.5 L 534.5 241.5 z M 522.8 203.8 C 527 219.20000000000002 531.8 234.60000000000002 533.5 250.60000000000002 C 533.6 252.00000000000003 533.7 253.40000000000003 533.8 254.70000000000002 C 533.5 258.5 533.3 262.3 533.1999999999999 266.20000000000005 C 531.8 262.6 531.4 258.80000000000007 530.3 255.10000000000005 C 528.0999999999999 247.20000000000005 526.5999999999999 239.10000000000005 524.3 231.30000000000004 C 522 224.50000000000003 519.5 217.80000000000004 516.9 211.20000000000005 C 515.1999999999999 204.20000000000005 514.5 197.00000000000006 512 190.20000000000005 C 510.1 184.10000000000005 507.2 178.50000000000006 504.2 173.00000000000006 C 508.3 176.30000000000007 512.1 180.40000000000006 514.1 185.30000000000007 C 516.7 191.10000000000008 519.1 197.20000000000007 522.3000000000001 202.80000000000007 C 522.6 203.1 522.7 203.4 522.8 203.8 L 522.8 203.8 z M 528.8 259.8 C 528 258 527 256.2 526.0999999999999 254.5 C 524.9999999999999 252.3 523.8 250 522.8 247.8 C 519.8 241.3 516.5999999999999 235 514.4 228.20000000000002 C 513.3 224.4 512.6999999999999 220.4 512.1999999999999 216.4 C 510.69999999999993 206.9 509.29999999999995 197.3 507.5999999999999 187.8 C 511.19999999999993 196 511.9999999999999 205 513.9999999999999 213.70000000000002 C 516.6999999999999 221.60000000000002 519.9999999999999 229.20000000000002 522.5999999999999 237.10000000000002 C 524.6 244.7 526.8 252.2 528.8 259.8 L 528.8 259.8 z M 502.5 377.4 C 503 370 502.5 362.59999999999997 502.8 355.2 C 504.1 360.5 506.2 365.59999999999997 507.7 370.8 C 508.2 377.6 510 384.3 510.3 391.2 C 510.5 396.9 508.5 402.4 506.5 407.59999999999997 C 503 417.9 497.8 427.49999999999994 493.7 437.59999999999997 C 495.2 431.9 496 425.99999999999994 495.8 420.09999999999997 C 496.2 412.99999999999994 497.40000000000003 405.9 499.3 398.99999999999994 C 500.1 396.29999999999995 501.7 392.8999999999999 502.2 389.79999999999995 C 503.1 385.8 502.5 381.5 502.5 377.4 L 502.5 377.4 z M 500.3 376.7 C 499.7 381.5 500.40000000000003 387.09999999999997 499 391.8 C 495.4 400.2 493.3 409 492.6 418.1 C 492.20000000000005 424.3 492.8 430.1 491.5 436.40000000000003 C 491.2 431.20000000000005 491.5 425.90000000000003 490.9 420.70000000000005 C 490.4 414.40000000000003 489.29999999999995 408.20000000000005 490.5 401.90000000000003 C 493.3 390.1 497.2 378.50000000000006 499.2 366.50000000000006 C 500 360.1000000000001 500.2 353.70000000000005 501.2 347.30000000000007 C 501 357.2 500.9 367 500.3 376.7 L 500.3 376.7 z M 475.1 479.6 L 475.1 479.6 C 475.1 479.6 475.1 479.5 475.1 479.5 L 475.1 479.6 z M 421.7 532.2 C 433.3 526 443.4 517.6 452.9 508.6 C 455.59999999999997 507.6 458.5 507.1 461.29999999999995 506.6 C 462.99999999999994 506.20000000000005 464.59999999999997 505.70000000000005 466.19999999999993 505.20000000000005 C 452.3 515.6 437.6 525.2 421.7 532.2 L 421.7 532.2 z M 513.9 469.3 C 518.5 462.1 522.3 454.40000000000003 527.6 447.7 C 534.3000000000001 439.4 542.7 432.7 550.6 425.59999999999997 C 558.8000000000001 419.09999999999997 567.5 413.2 575.3000000000001 406.2 C 582.8000000000001 400.09999999999997 589.8000000000001 393.4 595.8000000000001 385.8 C 588.3000000000001 398 579.6 409.40000000000003 571.2 421 C 566 427.7 559.1 432.7 552.4000000000001 437.7 C 549.4000000000001 440 546.0000000000001 441.8 543.6000000000001 444.7 C 538.1000000000001 451.5 531.9000000000001 457.4 526.5000000000001 464.3 C 524.2000000000002 467 520.8000000000001 468.5 518.0000000000001 470.6 C 515.1000000000001 472.8 512.3000000000001 475.1 508.9000000000001 476.3 C 510.7 474.2 512.3 471.7 513.9 469.3 L 513.9 469.3 z M 503.4 482.1 C 505.5 480.40000000000003 508.4 480.20000000000005 510.79999999999995 479.1 C 515.5999999999999 476.8 519.5999999999999 473 524.3 470.40000000000003 C 527.3 468.3 529.3 465.3 531.6999999999999 462.50000000000006 C 535.9 457.70000000000005 540.5999999999999 453.30000000000007 544.5999999999999 448.30000000000007 C 546.6999999999999 445.9000000000001 549.4999999999999 444.30000000000007 552.0999999999999 442.50000000000006 C 558.1999999999999 437.90000000000003 564.6999999999999 433.70000000000005 569.8999999999999 428.00000000000006 C 573.6999999999998 423.90000000000003 576.8999999999999 419.30000000000007 580.0999999999999 414.80000000000007 C 585.8 406.9000000000001 591.8999999999999 399.4000000000001 597.0999999999999 391.1000000000001 C 594.0999999999999 399.1000000000001 590.8 407.2000000000001 586.4999999999999 414.50000000000006 C 584.5999999999999 417.40000000000003 581.9999999999999 419.80000000000007 580.0999999999999 422.70000000000005 C 578.6999999999999 424.80000000000007 577.3999999999999 426.90000000000003 575.8 428.80000000000007 C 571.5999999999999 433.50000000000006 567 438.00000000000006 562.1999999999999 442.1000000000001 C 558.9 444.7000000000001 556.3 448.2000000000001 553.5999999999999 451.4000000000001 C 550.9999999999999 454.6000000000001 548.8 458.0000000000001 545.8999999999999 461.0000000000001 C 542.4999999999999 464.3000000000001 539.3999999999999 468.0000000000001 535.7999999999998 471.3000000000001 C 530.5999999999998 475.8000000000001 524.2999999999998 478.8000000000001 517.7999999999998 480.8000000000001 C 512.5999999999998 482.60000000000014 506.6999999999998 480.7000000000001 501.6999999999998 483.5000000000001 C 502.1 483.1 502.8 482.6 503.4 482.1 L 503.4 482.1 z M 480.8 493.7 C 479.6 494.7 478.40000000000003 495.7 477.2 496.59999999999997 C 472.3 499.59999999999997 467 501.99999999999994 461.59999999999997 503.99999999999994 C 459.59999999999997 504.59999999999997 457.7 505.19999999999993 455.7 505.8999999999999 C 458.9 502.69999999999993 462.09999999999997 499.49999999999994 465.3 496.2999999999999 C 480.3 480.1999999999999 495.3 463.7999999999999 506.90000000000003 444.9999999999999 C 514.3000000000001 432.4999999999999 518.9000000000001 418.6999999999999 522.7 404.7999999999999 C 527.1 388.9999999999999 531.1 373.0999999999999 533.8000000000001 356.8999999999999 C 534.9000000000001 350.3999999999999 535.6 343.8999999999999 536.1 337.2999999999999 C 536.1 336.2999999999999 536.1 335.1999999999999 536.2 334.0999999999999 L 536.2 334.0999999999999 C 536.3000000000001 331.9999999999999 536.5 329.8999999999999 536.7 327.7999999999999 C 536.8000000000001 326.6999999999999 536.9000000000001 325.5999999999999 537 324.3999999999999 C 537.1 312.69999999999993 538.2 300.7999999999999 537.3 289.0999999999999 C 537.3 277.4999999999999 537.0999999999999 265.8999999999999 536.0999999999999 254.39999999999992 C 536.5999999999999 247.29999999999993 537.0999999999999 240.19999999999993 536.1999999999999 233.19999999999993 C 534.4999999999999 223.39999999999992 530.6999999999999 214.09999999999994 527.5999999999999 204.69999999999993 C 526.3999999999999 201.69999999999993 524.8 198.99999999999994 523.3 196.09999999999994 C 521.3 188.89999999999995 519.3 181.79999999999993 517.1999999999999 174.69999999999993 C 510.99999999999994 151.99999999999994 498.0999999999999 132.19999999999993 485.79999999999995 112.39999999999993 C 468.69999999999993 84.59999999999994 461.59999999999997 82.19999999999993 434.59999999999997 66.19999999999993 C 454.09999999999997 74.19999999999993 473.29999999999995 83.59999999999994 491.09999999999997 95.19999999999993 C 510.09999999999997 108.59999999999994 527.8 124.39999999999993 542.1999999999999 142.69999999999993 C 556.4999999999999 160.69999999999993 564.0999999999999 182.89999999999992 569.1999999999999 205.09999999999994 C 572.0999999999999 218.19999999999993 574.0999999999999 231.49999999999994 574.6999999999999 244.89999999999992 C 574.9999999999999 260.19999999999993 574.1999999999999 275.49999999999994 573.0999999999999 290.69999999999993 C 572.4999999999999 289.79999999999995 571.9999999999999 288.8999999999999 571.3 287.99999999999994 C 569 285.19999999999993 567.3 282.09999999999997 565.6999999999999 278.8999999999999 C 565.5999999999999 275.2999999999999 563.5999999999999 271.99999999999994 563.1999999999999 268.3999999999999 C 562.1999999999999 260.3999999999999 562.9 252.19999999999993 563.9 244.19999999999993 C 564.6999999999999 239.79999999999993 565.6 235.29999999999993 565.6 230.69999999999993 C 565.1 223.39999999999992 563.7 216.19999999999993 561.4 209.29999999999993 C 560 204.39999999999992 558 199.69999999999993 555.5 195.29999999999993 C 553.5 192.49999999999991 551.5 189.69999999999993 549.6 186.89999999999992 C 548.5 184.49999999999991 547.1 182.0999999999999 545.9 179.69999999999993 C 544.1999999999999 176.19999999999993 543.3 171.79999999999993 541.1999999999999 168.69999999999993 C 540.3 167.89999999999992 539.9 169.19999999999993 539.9999999999999 169.89999999999992 C 539.4999999999999 169.0999999999999 539.1999999999999 168.0999999999999 538.2999999999998 167.49999999999991 C 538.0999999999998 167.39999999999992 537.7999999999998 167.39999999999992 537.6999999999998 167.49999999999991 C 536.7999999999998 168.79999999999993 537.6999999999998 170.5999999999999 537.7999999999998 172.0999999999999 C 538.5999999999998 177.49999999999991 539.0999999999998 182.99999999999991 540.6999999999998 188.1999999999999 C 542.6999999999998 194.0999999999999 544.6999999999998 200.0999999999999 546.1999999999998 206.1999999999999 C 549.9999999999998 216.7999999999999 549.6999999999998 227.7999999999999 550.6999999999998 238.9999999999999 C 551.3999999999999 252.7999999999999 556.6999999999998 265.6999999999999 562.2999999999998 278.0999999999999 C 563.8999999999999 281.0999999999999 565.3999999999999 284.19999999999993 567.3999999999999 287.0999999999999 C 569.2999999999998 289.4999999999999 571.1999999999998 291.9999999999999 572.8999999999999 294.5999999999999 C 571.5999999999999 311.2999999999999 569.6999999999998 327.9999999999999 565.8999999999999 344.2999999999999 C 560.9999999999999 363.8999999999999 552.6999999999998 382.4999999999999 543.6999999999998 400.3999999999999 C 534.4999999999998 418.2999999999999 524.9999999999998 436.19999999999993 514.3999999999999 453.19999999999993 C 505 468.5 494.3 482.6 480.8 493.7 L 480.8 493.7 z M 561.1 263.5 C 561 263 560.9 262.6 560.8000000000001 262.1 C 559.7 257.90000000000003 558.5000000000001 253.70000000000002 558.1 249.40000000000003 C 557.9 245.20000000000005 558.4 240.90000000000003 558.6 236.50000000000003 C 559.2 226.00000000000003 561.5 214.90000000000003 557.3000000000001 204.80000000000004 C 560.7 213.00000000000003 562.9000000000001 221.70000000000005 563.3000000000001 230.60000000000005 C 563.1 235.60000000000005 561.9000000000001 240.50000000000006 561.5000000000001 245.40000000000006 C 561 251.5 560.8 257.5 561.1 263.5 L 561.1 263.5 z M 544 192.7 C 541.7 186.79999999999998 540.7 180.6 539.8 174.39999999999998 C 542.8 179.59999999999997 545.4 184.89999999999998 548.0999999999999 190.2 C 551.9999999999999 195.5 553.8 202.1 555.6999999999999 208.39999999999998 C 557.1999999999999 213.59999999999997 556.0999999999999 218.99999999999997 556.0999999999999 224.29999999999998 C 555.5999999999999 229.99999999999997 555.3 235.2 555.1999999999999 240.99999999999997 C 554.4 249.29999999999998 557.5999999999999 257.09999999999997 559.4 265 C 556.9 259.3 555.1 253.3 553.8 247 C 552.5999999999999 238.9 552.3 231.2 551.5999999999999 223 C 551.1999999999999 216.7 549.3999999999999 210.8 547.5999999999999 204.8 C 546.6 200.9 545.6 196.7 544 192.7 L 544 192.7 z" stroke-linecap="round" />
</g>
		<g transform="matrix(1 0 0 1 -298.65 4.93)"  >
<path style="stroke: none; stroke-width: 1; stroke-dasharray: none; stroke-linecap: butt; stroke-dashoffset: 0; stroke-linejoin: miter; stroke-miterlimit: 4; fill: rgb(255,251,172); fill-rule: nonzero; opacity: 1;" vector-effect="non-scaling-stroke"  transform=" translate(-7.9, -290.5)" d="M 7.9 290.5 L 7.9 290.5 C 7.9 290.5 7.9 290.5 7.9 290.5 C 7.9 290.5 7.9 290.5 7.9 290.5 L 7.9 290.5 z" stroke-linecap="round" />
</g>
		<g transform="matrix(1 0 0 1 267.75 114.87)"  >
<path style="stroke: none; stroke-width: 1; stroke-dasharray: none; stroke-linecap: butt; stroke-dashoffset: 0; stroke-linejoin: miter; stroke-miterlimit: 4; fill: rgb(255,251,172); fill-rule: nonzero; opacity: 1;" vector-effect="non-scaling-stroke"  transform=" translate(-574.3, -400.44)" d="M 574.3 400.4 L 574.3 400.4 C 574.3 400.5 574.3 400.5 574.3 400.4 L 574.3 400.4 L 574.3 400.4 L 574.3 400.4 z" stroke-linecap="round" />
</g>
		<g transform="matrix(1 0 0 1 -85.15 -259.12)"  >
<path style="stroke: none; stroke-width: 1; stroke-dasharray: none; stroke-linecap: butt; stroke-dashoffset: 0; stroke-linejoin: miter; stroke-miterlimit: 4; fill: rgb(255,251,172); fill-rule: nonzero; opacity: 1;" vector-effect="non-scaling-stroke"  transform=" translate(-221.4, -26.45)" d="M 217 26.9 C 216.8 27.5 216.7 28.799999999999997 217.5 29.099999999999998 C 218.6 28.999999999999996 219.7 28.999999999999996 220.7 29.099999999999998 C 220.89999999999998 29.9 220.89999999999998 30.599999999999998 221.2 31.4 C 221.1 32 221.1 32.6 221.2 33.199999999999996 C 221.29999999999998 33.699999999999996 221.5 34.3 222 34.599999999999994 C 223.1 35.099999999999994 223.2 32.49999999999999 222.7 31.899999999999995 C 222.79999999999998 30.999999999999996 223 30.199999999999996 223.1 29.299999999999994 C 224.2 29.399999999999995 226 30.199999999999992 226.2 28.499999999999993 C 226.39999999999998 27.699999999999992 226.29999999999998 26.699999999999992 225.79999999999998 26.099999999999994 C 225.29999999999998 25.599999999999994 224.7 25.099999999999994 224.49999999999997 24.399999999999995 C 224.99999999999997 24.099999999999994 225.59999999999997 23.699999999999996 226.19999999999996 23.799999999999994 C 226.99999999999997 23.599999999999994 226.99999999999997 22.199999999999992 226.79999999999995 21.599999999999994 C 226.39999999999995 20.399999999999995 224.79999999999995 21.399999999999995 223.99999999999994 21.599999999999994 C 224.19999999999993 16.299999999999994 222.09999999999994 17.899999999999995 222.69999999999993 22.099999999999994 C 222.49999999999994 22.199999999999996 222.29999999999993 22.299999999999994 222.09999999999994 22.299999999999994 C 221.39999999999995 21.399999999999995 220.69999999999993 20.699999999999992 219.99999999999994 19.699999999999992 C 219.89999999999995 19.499999999999993 219.69999999999993 19.39999999999999 219.49999999999994 19.499999999999993 C 218.19999999999993 20.499999999999993 219.49999999999994 22.099999999999994 219.59999999999994 23.39999999999999 C 218.49999999999994 23.999999999999993 217.09999999999994 24.09999999999999 216.09999999999994 24.79999999999999 C 215.7 25.4 215.8 27.1 217 26.9 L 217 26.9 z" stroke-linecap="round" />
</g>
		<g transform="matrix(1 0 0 1 -103.15 -236.61)"  >
<path style="stroke: none; stroke-width: 1; stroke-dasharray: none; stroke-linecap: butt; stroke-dashoffset: 0; stroke-linejoin: miter; stroke-miterlimit: 4; fill: rgb(255,251,172); fill-rule: nonzero; opacity: 1;" vector-effect="non-scaling-stroke"  transform=" translate(-203.4, -48.96)" d="M 205.4 42.6 C 205.1 42.4 204.9 42.9 204.8 43.1 C 204.60000000000002 43.9 204.60000000000002 44.7 204.5 45.6 C 203.8 45.1 203.3 44.1 202.4 43.800000000000004 C 201.5 44.2 202.1 45.800000000000004 202.1 46.6 C 201.1 46.800000000000004 200 45.5 199 46.300000000000004 C 198.5 47.00000000000001 198.6 48.400000000000006 199.5 48.6 C 198.6 49.1 197.8 49.800000000000004 198.2 50.9 C 198.29999999999998 51.1 198.39999999999998 51.5 198.7 51.5 C 200.1 51.2 201.5 51.1 203 51.1 C 203.2 51.800000000000004 203.5 52.5 203.9 53.1 C 203.9 53.6 203.9 54 204 54.5 C 204 54.8 204.3 55.6 204.8 55.3 C 205.60000000000002 54.5 205 53.199999999999996 205.20000000000002 52.099999999999994 C 205.8 52.3 206.10000000000002 51.49999999999999 206.20000000000002 51.099999999999994 C 207.10000000000002 51.099999999999994 208.4 51.39999999999999 208.4 50.199999999999996 C 208.70000000000002 48.9 207.8 48.199999999999996 206.8 47.49999999999999 C 207.70000000000002 46.99999999999999 208.8 46.39999999999999 208.70000000000002 45.199999999999996 C 208.70000000000002 44.699999999999996 208.50000000000003 43.699999999999996 207.8 43.8 C 207.10000000000002 44 206.4 44.5 205.8 44.9 C 205.6 44.1 205.9 43.1 205.4 42.6 L 205.4 42.6 z" stroke-linecap="round" />
</g>
		<g transform="matrix(1 0 0 1 -61.25 -250.34)"  >
<path style="stroke: none; stroke-width: 1; stroke-dasharray: none; stroke-linecap: butt; stroke-dashoffset: 0; stroke-linejoin: miter; stroke-miterlimit: 4; fill: rgb(255,251,172); fill-rule: nonzero; opacity: 1;" vector-effect="non-scaling-stroke"  transform=" translate(-245.3, -35.24)" d="M 242.3 37.1 C 242.70000000000002 37 243.20000000000002 37 243.60000000000002 37 C 244.00000000000003 37.7 244.10000000000002 39.2 245.20000000000002 39.1 C 246.20000000000002 40.1 246.4 37.5 245.9 37.1 C 246.70000000000002 37.1 247.6 37.2 248.3 36.800000000000004 C 248.9 36.400000000000006 248.9 35.6 248.8 35.00000000000001 C 248.70000000000002 34.20000000000001 247.9 33.800000000000004 247.3 33.400000000000006 C 247.60000000000002 32.900000000000006 247.70000000000002 32.2 247.5 31.600000000000005 C 247.4 31.400000000000006 247.2 31.000000000000004 246.9 31.200000000000006 C 246.5 31.600000000000005 246.1 31.900000000000006 245.70000000000002 32.300000000000004 C 245.3 32.1 245.10000000000002 31.900000000000006 244.8 31.600000000000005 C 244.5 31.400000000000006 244.10000000000002 31.500000000000004 243.70000000000002 31.500000000000004 C 243.4 31.600000000000005 243.20000000000002 32 243.10000000000002 32.300000000000004 C 242.8 32.50000000000001 242.50000000000003 32.7 242.3 33.00000000000001 C 241.8 33.50000000000001 241.8 34.400000000000006 242.10000000000002 35.10000000000001 C 241.6 35.5 241.6 37 242.3 37.1 L 242.3 37.1 z" stroke-linecap="round" />
</g>
		<g transform="matrix(1 0 0 1 209.92 -198.23)"  >
<path style="stroke: none; stroke-width: 1; stroke-dasharray: none; stroke-linecap: butt; stroke-dashoffset: 0; stroke-linejoin: miter; stroke-miterlimit: 4; fill: rgb(255,251,172); fill-rule: nonzero; opacity: 1;" vector-effect="non-scaling-stroke"  transform=" translate(-516.47, -87.34)" d="M 515.7 89 C 516.3000000000001 90.3 516.4000000000001 91.7 517 93 C 517.1 93.2 517.2 93.6 517.5 93.6 C 517.8 93.5 517.9 93.1 517.9 92.8 C 519 93.5 518.3 90.1 518.5 89.6 C 519.9 89.8 523.7 91 523.3 88.39999999999999 C 523.3 88.1 523.0999999999999 87.69999999999999 522.8 87.6 C 521.3 87.1 519.9 86.3 518.5999999999999 85.19999999999999 C 518.5999999999999 85.1 518.5999999999999 84.99999999999999 518.5999999999999 84.99999999999999 C 519.3 84.69999999999999 519.9999999999999 84.59999999999998 520.6999999999999 84.49999999999999 C 521.0999999999999 84.39999999999999 521.6999999999999 84.39999999999999 521.9 83.99999999999999 C 522.1999999999999 83.29999999999998 522.1999999999999 81.99999999999999 521.4 81.59999999999998 C 520.6 81.29999999999998 519.8 81.79999999999998 519.1 82.09999999999998 C 519 80.09999999999998 518.1 81.49999999999999 518.1 82.59999999999998 C 517.6 82.79999999999998 517.2 83.09999999999998 516.8000000000001 83.39999999999998 C 516.5000000000001 82.99999999999997 516.2 82.59999999999998 515.8000000000001 82.29999999999998 C 515.6 82.09999999999998 515.2 81.59999999999998 514.8000000000001 81.89999999999998 C 514.2 82.49999999999997 514.5000000000001 83.59999999999998 514.6 84.39999999999998 C 513.8000000000001 84.59999999999998 513.1 84.89999999999998 512.3000000000001 84.99999999999997 C 511.80000000000007 85.09999999999997 511.80000000000007 85.79999999999997 511.9000000000001 86.29999999999997 C 511.2000000000001 86.69999999999997 510.5000000000001 86.99999999999997 509.9000000000001 87.49999999999997 C 509.5000000000001 87.89999999999998 509.5000000000001 88.79999999999997 510.0000000000001 89.19999999999997 C 511.8 88.8 513.8 88.7 515.7 89 L 515.7 89 z M 518.8 87.4 C 518.9 87.5 519.0999999999999 87.60000000000001 519.1999999999999 87.7 L 519.0999999999999 87.7 C 518.9999999999999 87.7 518.8999999999999 87.7 518.8 87.60000000000001 C 518.8 87.6 518.8 87.5 518.8 87.4 L 518.8 87.4 z" stroke-linecap="round" />
</g>
		<g transform="matrix(1 0 0 1 295.12 -102.92)"  >
<path style="stroke: none; stroke-width: 1; stroke-dasharray: none; stroke-linecap: butt; stroke-dashoffset: 0; stroke-linejoin: miter; stroke-miterlimit: 4; fill: rgb(255,251,172); fill-rule: nonzero; opacity: 1;" vector-effect="non-scaling-stroke"  transform=" translate(-601.68, -182.65)" d="M 597.4 183.8 L 597.4 183.8 C 597.4 184.4 597.6999999999999 185.3 598.4 185.10000000000002 C 599.1 185.00000000000003 599.8 185.50000000000003 600.4 185.70000000000002 C 600.5 186.20000000000002 600.6 186.70000000000002 600.6999999999999 187.20000000000002 C 600.8 187.70000000000002 600.9 188.20000000000002 601.1999999999999 188.70000000000002 C 601.3 188.9 601.6999999999999 188.9 601.8 188.70000000000002 C 602 188.70000000000002 602.1999999999999 188.50000000000003 602.3 188.3 C 603.0999999999999 189.60000000000002 603.5999999999999 187.70000000000002 603.5 186.9 C 604.8 187.3 606.1 187.6 607.2 188.6 C 607.5 188.79999999999998 607.9000000000001 188.5 608 188.2 C 608.3 187.39999999999998 608.4 186.2 607.7 185.6 C 606.6 184.7 605.7 183.7 604.7 182.7 C 605.2 182 605.3000000000001 180.1 604.2 180 C 604.2 180 604.2 179.9 604.2 179.9 C 604.2 179.6 604.2 179.3 604 179 C 604 178.4 603.8 175.6 602.8 176.7 C 602.1999999999999 177.7 602.1999999999999 179 602 180.1 C 601.4 179.6 600.8 179 600.1 178.5 C 599.9 178.4 599.7 178.3 599.6 178.5 C 598.9 179.1 599.3000000000001 180.1 599.4 180.9 C 598.5 181 597.5 181.1 596.6 180.70000000000002 C 596.2 180.60000000000002 595.6 180.50000000000003 595.4 181.00000000000003 C 595 181.70000000000002 595 182.80000000000004 595.6 183.30000000000004 C 596.1 183.5 596.9 183.3 597.4 183.8 L 597.4 183.8 z M 601.4 186.1 C 601.4 186.2 601.4 186.2 601.3 186.29999999999998 C 601.3 186.2 601.3 186.1 601.1999999999999 185.99999999999997 C 601.3 186.1 601.4 186.1 601.4 186.1 L 601.4 186.1 z" stroke-linecap="round" />
</g>
		<g transform="matrix(1 0 0 1 249.18 -199.65)"  >
<path style="stroke: none; stroke-width: 1; stroke-dasharray: none; stroke-linecap: butt; stroke-dashoffset: 0; stroke-linejoin: miter; stroke-miterlimit: 4; fill: rgb(255,251,172); fill-rule: nonzero; opacity: 1;" vector-effect="non-scaling-stroke"  transform=" translate(-555.73, -85.92)" d="M 551.6 85 C 550.5 85.4 550 86.5 550.4 87.6 C 550.5 87.8 550.6 88 550.8 88.1 C 552 88.3 553.3 88.39999999999999 554.5 88.69999999999999 C 554.7 89.39999999999999 554.8 89.99999999999999 554.9 90.89999999999999 C 554.9 91.1 555.1 91.69999999999999 555.4 91.49999999999999 C 555.5 91.69999999999999 555.6 91.99999999999999 555.9 92.09999999999998 C 557 92.09999999999998 556.6999999999999 90.19999999999997 556.9 89.49999999999999 C 558.1 89.89999999999999 559.3 90.49999999999999 560.5 90.89999999999999 C 561 90.99999999999999 561.3 90.39999999999999 561.4 89.99999999999999 C 562.1999999999999 87.59999999999998 559.3 86.69999999999999 557.9 85.29999999999998 L 557.9 85.29999999999998 C 558 84.79999999999998 558 84.39999999999998 558.1 83.89999999999998 C 559.2 83.39999999999998 559.4 81.19999999999997 558.4 80.59999999999998 C 557.9 78.69999999999997 557.1 80.39999999999998 556.9 81.39999999999998 C 556.1 81.69999999999997 555.3 81.89999999999998 554.5 81.99999999999997 C 554 81.29999999999997 553.5 80.59999999999997 553.1 79.99999999999997 C 552.9 79.79999999999997 552.7 79.79999999999997 552.6 80.09999999999997 C 552.3000000000001 80.69999999999996 552.6 81.49999999999997 552.8000000000001 82.09999999999997 C 552.1 81.99999999999997 551.4000000000001 81.89999999999996 550.7 81.69999999999996 C 550.2 81.59999999999997 550.1 82.29999999999995 550 82.69999999999996 C 549.6 83.8 550.9 84.3 551.6 85 L 551.6 85 z" stroke-linecap="round" />
</g>
		<g transform="matrix(1 0 0 1 -280.44 98.56)"  >
<path style="stroke: none; stroke-width: 1; stroke-dasharray: none; stroke-linecap: butt; stroke-dashoffset: 0; stroke-linejoin: miter; stroke-miterlimit: 4; fill: rgb(255,251,172); fill-rule: nonzero; opacity: 1;" vector-effect="non-scaling-stroke"  transform=" translate(-26.11, -384.13)" d="M 32.7 382.4 C 31.6 382.2 30.400000000000002 382.09999999999997 29.300000000000004 381.79999999999995 C 29.500000000000004 380.9 30.900000000000006 376.99999999999994 29.100000000000005 377.09999999999997 C 28.100000000000005 378.2 27.700000000000006 379.9 26.900000000000006 381.09999999999997 C 25.800000000000004 380.79999999999995 24.700000000000006 380.29999999999995 23.700000000000006 379.9 C 23.200000000000006 379.7 22.600000000000005 379.5 22.300000000000008 380 C 21.500000000000007 381.6 22.700000000000006 383.3 23.300000000000008 384.7 C 21.90000000000001 384.2 20.700000000000006 383.4 19.300000000000008 382.8 C 18.90000000000001 382.7 18.700000000000006 383.40000000000003 18.700000000000006 383.7 C 18.500000000000007 385.3 20.800000000000008 385.7 21.900000000000006 386.4 C 21.500000000000007 387 21.500000000000007 387.79999999999995 21.800000000000004 388.4 C 22.200000000000003 389.5 23.600000000000005 388.4 24.100000000000005 387.9 C 25.000000000000004 388.7 25.700000000000006 389.7 26.100000000000005 390.79999999999995 C 26.700000000000006 391.79999999999995 27.200000000000006 390.49999999999994 27.200000000000006 389.9 C 27.900000000000006 390.2 28.200000000000006 389.7 28.300000000000008 389 C 29.000000000000007 389.4 29.300000000000008 388.5 29.40000000000001 388 C 29.40000000000001 387.5 29.40000000000001 386.7 28.800000000000008 386.5 C 28.500000000000007 386.4 28.300000000000008 386.4 28.000000000000007 386.3 C 28.000000000000007 386.1 28.10000000000001 386 28.10000000000001 385.8 C 29.60000000000001 385.5 31.20000000000001 385.5 32.80000000000001 385.5 C 33.30000000000001 385.5 33.500000000000014 384.7 33.500000000000014 384.3 C 33.6 383.5 33.5 382.5 32.7 382.4 L 32.7 382.4 z M 24.8 384.2 C 24.5 383.7 24.3 383.2 24 382.7 C 24.3 382.8 24.6 383 24.9 383.09999999999997 C 24.9 383.4 25 383.7 25.099999999999998 383.99999999999994 C 25 384.1 24.9 384.2 24.8 384.2 L 24.8 384.2 z" stroke-linecap="round" />
</g>
		<g transform="matrix(1 0 0 1 -289.77 -25.15)"  >
<path style="stroke: none; stroke-width: 1; stroke-dasharray: none; stroke-linecap: butt; stroke-dashoffset: 0; stroke-linejoin: miter; stroke-miterlimit: 4; fill: rgb(255,251,172); fill-rule: nonzero; opacity: 1;" vector-effect="non-scaling-stroke"  transform=" translate(-16.78, -260.42)" d="M 11.5 260.9 C 11 261.4 10.2 261.2 9.8 261.79999999999995 C 9.4 262.4 9.3 263.49999999999994 9.9 263.9 C 10.3 264.09999999999997 10.6 263.79999999999995 10.9 263.7 C 11.700000000000001 263.09999999999997 12.700000000000001 263 13.7 262.9 C 13.799999999999999 263.9 14.6 264.4 15.2 263.4 C 16 264.59999999999997 15.399999999999999 266 15.799999999999999 267.29999999999995 C 16.2 268.09999999999997 16.7 266.99999999999994 16.599999999999998 266.59999999999997 C 16.9 267.2 17.2 267.79999999999995 17.299999999999997 268.4 C 17.299999999999997 268.5 17.4 268.7 17.599999999999998 268.79999999999995 C 17.799999999999997 269.19999999999993 17.999999999999996 269.69999999999993 18.4 269.99999999999994 C 18.799999999999997 270.19999999999993 19.099999999999998 269.69999999999993 19.2 269.3999999999999 C 20.599999999999998 268.8999999999999 19.8 266.49999999999994 19.599999999999998 265.2999999999999 C 19.9 264.4999999999999 19.7 263.6999999999999 19.599999999999998 262.8999999999999 C 21.2 262.8999999999999 22.9 262.99999999999994 24.5 262.8999999999999 C 24.7 262.8999999999999 24.8 262.7999999999999 24.9 262.69999999999993 C 25.4 262.0999999999999 25.4 260.99999999999994 24.9 260.3999999999999 C 24.2 259.7999999999999 23.2 259.69999999999993 22.299999999999997 259.19999999999993 C 23.699999999999996 258.5999999999999 23.099999999999998 255.99999999999994 21.499999999999996 256.19999999999993 C 21.399999999999995 255.89999999999992 21.299999999999997 255.69999999999993 21.099999999999998 255.49999999999994 C 20.9 255.29999999999995 20.599999999999998 255.09999999999994 20.4 254.89999999999995 C 21.099999999999998 253.99999999999994 22.099999999999998 253.19999999999996 22.099999999999998 251.99999999999994 C 22.099999999999998 251.59999999999994 21.999999999999996 250.99999999999994 21.599999999999998 250.79999999999995 C 21.499999999999996 250.79999999999995 21.4 250.79999999999995 21.299999999999997 250.79999999999995 C 20.299999999999997 251.59999999999997 19.599999999999998 252.69999999999996 18.9 253.69999999999996 C 18.799999999999997 253.59999999999997 18.7 253.49999999999997 18.7 253.39999999999995 C 18.7 252.89999999999995 18.7 251.39999999999995 18 252.39999999999995 C 16.7 249.49999999999994 16.8 254.09999999999994 16.9 255.09999999999994 C 16.7 254.89999999999995 16.4 254.79999999999993 16.2 254.89999999999995 C 14.7 253.79999999999995 13.5 251.99999999999994 11.799999999999999 251.29999999999995 C 9.599999999999998 252.39999999999995 12.6 256.69999999999993 13.1 258.29999999999995 C 11.7 258.4 10.1 258.09999999999997 8.7 258.69999999999993 C 8.399999999999999 258.8999999999999 8.299999999999999 259.3999999999999 8.299999999999999 259.69999999999993 C 8.1 261.4 10.4 261 11.5 260.9 L 11.5 260.9 z M 19 260.1 C 19.1 260.1 19.1 260 19.2 260 L 19.2 260 C 19.3 260 19.3 260.1 19.4 260.1 C 19.3 260.1 19.1 260.1 19 260.1 L 19 260.1 z M 18.8 256.6 C 19 256.40000000000003 19.1 256.3 19.3 256.1 C 19.400000000000002 256.20000000000005 19.6 256.3 19.7 256.5 C 19.4 256.6 19 256.7 18.7 256.8 C 18.7 256.7 18.8 256.6 18.8 256.6 z M 17.8 254.6 L 17.8 254.6 C 17.8 254.7 17.8 254.79999999999998 17.8 254.9 L 17.7 255 C 17.8 254.9 17.8 254.7 17.8 254.6 z M 16.6 262.7 L 16.8 262.7 C 16.900000000000002 263 17 263.3 17.1 263.59999999999997 L 17.1 263.99999999999994 C 17 263.59999999999997 16.8 263.29999999999995 16.6 262.8999999999999 C 16.6 262.9 16.6 262.8 16.6 262.7 z M 14.6 257.2 C 14.7 257.4 14.799999999999999 257.7 14.9 257.9 L 14.9 257.9 C 14.8 257.9 14.700000000000001 258 14.6 258 C 14.6 257.7 14.6 257.5 14.6 257.2 L 14.6 257.2 z M 13.6 255.4 L 13.799999999999999 255.6 C 13.799999999999999 255.9 13.7 256.1 13.7 256.4 C 13.6 256.09999999999997 13.5 255.79999999999998 13.299999999999999 255.59999999999997 L 13.299999999999999 255.59999999999997 C 13.2 255.39999999999998 13.1 255.09999999999997 12.999999999999998 254.89999999999998 C 13.2 255 13.4 255.2 13.6 255.4 L 13.6 255.4 z" stroke-linecap="round" />
</g>
		<g transform="matrix(1 0 0 1 247.35 193.03)"  >
<path style="stroke: none; stroke-width: 1; stroke-dasharray: none; stroke-linecap: butt; stroke-dashoffset: 0; stroke-linejoin: miter; stroke-miterlimit: 4; fill: rgb(255,251,172); fill-rule: nonzero; opacity: 1;" vector-effect="non-scaling-stroke"  transform=" translate(-553.9, -478.6)" d="M 561.2 480.8 C 561.4000000000001 479.3 560.5 478.6 559.1 478.8 C 558.9 478.6 558.7 478.40000000000003 558.5 478.2 C 558.4 478 558.2 477.9 558.1 477.7 L 558.1 477.5 C 559 477 560.4 476.7 560.7 475.6 C 561 473.6 560.1 473.5 558.5 474.40000000000003 C 558.5 473.90000000000003 558.5 473.1 558 472.90000000000003 C 557.7 472.8 557.6 473.1 557.5 473.3 C 557.3 473.90000000000003 557.1 474.5 557 475.2 C 556.9 475.2 556.8 475.3 556.7 475.3 L 556.7 475.3 C 556.6 473.90000000000003 556.9000000000001 472.2 555.9000000000001 471.1 C 554.7 470.8 554.7 473 554.6000000000001 473.8 C 552.2000000000002 471.2 552.5000000000001 475.40000000000003 552.8000000000002 476.90000000000003 C 552.6000000000001 477.00000000000006 552.3000000000002 477.00000000000006 552.0000000000002 477.00000000000006 C 550.6000000000003 477.20000000000005 549.1000000000003 477.50000000000006 547.6000000000003 477.50000000000006 L 547.6000000000003 477.50000000000006 C 547.1000000000003 477.6000000000001 547.1000000000003 478.30000000000007 547.2000000000003 478.70000000000005 C 547.3000000000003 479.6 548.3000000000003 479.30000000000007 548.9000000000003 479.6 C 548.0000000000003 480 547.2000000000003 480.5 546.2000000000003 480.8 C 545.8000000000003 480.90000000000003 545.8000000000003 481.6 545.8000000000003 481.90000000000003 C 545.8000000000003 482.20000000000005 545.9000000000003 482.70000000000005 546.3000000000003 482.70000000000005 C 548.4000000000003 482.20000000000005 550.5000000000003 482.30000000000007 552.7000000000003 482.40000000000003 C 552.1000000000003 483.90000000000003 553.3000000000003 485.40000000000003 554.7000000000003 485.8 C 554.8000000000003 485.90000000000003 554.9000000000003 486 555.1000000000003 486.1 C 555.4000000000002 486.20000000000005 555.7000000000003 486.1 555.8000000000003 485.70000000000005 C 556.4000000000003 485.20000000000005 556.7000000000003 484.40000000000003 556.8000000000003 483.6 C 556.9000000000003 483.70000000000005 557.0000000000003 483.70000000000005 557.2000000000003 483.70000000000005 C 557.5000000000002 483.6 557.6000000000003 483.30000000000007 557.6000000000003 483.00000000000006 C 558.5000000000002 482.70000000000005 559.7000000000003 483.00000000000006 560.5000000000002 483.40000000000003 C 560.7000000000003 483.6 561.0000000000002 483.8 561.3000000000002 483.6 C 562.3 482.9 562.2 481.2 561.2 480.8 L 561.2 480.8 z M 554.1 476.7 C 554.1 476.4 554 476.09999999999997 554 475.8 C 554.2 476 554.5 476.3 554.7 476.5 C 554.4 476.6 554.2 476.7 554.1 476.7 L 554.1 476.7 z M 555.6 475 L 555.6 475 L 555.6 475 C 555.6 474.7 555.6 474.5 555.6 474.2 C 555.6 474.3 555.6 474.4 555.6 474.5 C 555.6 474.7 555.7 474.8 555.6 475 L 555.6 475 L 555.6 475 z" stroke-linecap="round" />
</g>
		<g transform="matrix(1 0 0 1 245.88 22.43)"  >
<path style="stroke: none; stroke-width: 1; stroke-dasharray: none; stroke-linecap: butt; stroke-dashoffset: 0; stroke-linejoin: miter; stroke-miterlimit: 4; fill: rgb(255,251,172); fill-rule: nonzero; opacity: 1;" vector-effect="non-scaling-stroke"  transform=" translate(-552.43, -308)" d="M 547.9 309.8 C 548.5 309.90000000000003 549 309.90000000000003 549.6 310 C 550.2 311.4 550.4 313.1 551.4 314.3 C 552.5 314.40000000000003 552.1 311.1 552.1999999999999 310.3 C 552.9999999999999 310.40000000000003 553.8 312.1 554.1999999999999 310.40000000000003 C 555.3 310.40000000000003 557.4999999999999 310.90000000000003 557.4 309.20000000000005 C 557.4 307.6 555.5 307.40000000000003 554.4 306.80000000000007 C 555.3 306.4000000000001 556.1999999999999 305.6000000000001 555.9 304.50000000000006 C 555.9 304.20000000000005 555.6999999999999 303.70000000000005 555.3 303.70000000000005 C 554.4 304.00000000000006 553.6999999999999 304.80000000000007 552.9 305.20000000000005 C 553 304.30000000000007 552.8 303.1 551.9 302.70000000000005 C 551.8 302.40000000000003 551.8 301.80000000000007 551.4 301.70000000000005 C 551.1 301.90000000000003 551 302.40000000000003 551.1999999999999 302.70000000000005 L 551.1999999999999 302.70000000000005 C 550.4 303.20000000000005 550.4 304.30000000000007 550.4999999999999 305.1 C 550.2999999999998 304.70000000000005 549.9999999999999 304.20000000000005 549.7999999999998 303.8 C 549.6999999999998 303.6 549.3999999999999 303.6 549.2999999999998 303.7 C 548.7999999999998 304.3 549.0999999999998 305.2 549.2999999999998 305.8 C 548.6999999999998 306.1 548.4999999999999 306.8 548.6999999999998 307.40000000000003 C 548.3999999999999 307.6 547.9999999999998 307.70000000000005 547.6999999999998 308.00000000000006 C 547.4 308.6 547.3 309.5 547.9 309.8 L 547.9 309.8 z M 553.9 308.4 C 554 308.5 554.1 308.5 554.3 308.59999999999997 C 554.0999999999999 308.59999999999997 554 308.59999999999997 553.8 308.59999999999997 L 553.8 308.59999999999997 C 553.6999999999999 308.49999999999994 553.5999999999999 308.29999999999995 553.5 308.2 C 553.6 308.2 553.8 308.3 553.9 308.4 C 554 308.4 553.9 308.4 553.9 308.4 L 553.9 308.4 z M 551.5 310.2 C 551.5 310.4 551.5 310.59999999999997 551.5 310.8 C 551.5 311.2 551.5 311.7 551.4 312.3 L 551.4 312.2 C 551.1 311.59999999999997 550.8 310.8 550.6 310.2 C 550.8 310.1 551.1 310.1 551.5 310.2 L 551.5 310.2 z" stroke-linecap="round" />
</g>
</g>
</g>
<g transform="matrix(NaN NaN NaN NaN 0 0)"  >
<g style=""   >
</g>
</g>
</svg>